<svg width="500" height="500" viewBox="0 0 500 500" fill="none" xmlns="http://www.w3.org/2000/svg">
<path d="M278.438 462.057C261.204 453.897 254.327 434.502 251.897 416.433C251.491 413.417 250.627 410.311 251.608 407.438C252.59 404.566 255.614 402.205 258.513 403.014C260.917 403.686 262.326 406.112 263.935 408.044C266.075 410.614 268.943 412.555 272.105 413.572C274.182 414.24 276.647 414.446 278.357 413.088C280.702 411.223 280.403 407.598 279.879 404.618C278.903 399.065 277.929 393.511 276.954 387.959C276.431 384.98 275.907 381.936 276.355 378.948C276.804 375.96 278.409 372.984 281.111 371.709C283.815 370.434 287.6 371.477 288.693 374.295C289.148 375.468 289.114 376.771 289.406 377.995C289.698 379.219 290.507 380.492 291.741 380.637C292.991 380.785 294.041 379.738 294.785 378.714C297.354 375.182 298.787 370.949 300.087 366.76C301.387 362.572 302.613 358.301 304.851 354.544C307.089 350.787 310.512 347.53 314.742 346.565C318.973 345.601 323.97 347.467 325.759 351.478C327.553 355.5 325.821 360.181 323.728 364.037C320.622 369.757 316.692 375.016 312.101 379.596C311.274 380.422 310.377 381.316 310.204 382.481C309.892 384.579 312.111 386.235 314.185 386.557C316.533 386.921 318.907 386.282 321.279 386.163C323.651 386.043 326.344 386.643 327.596 388.692C329.333 391.534 327.324 395.161 325.17 397.678C320.856 402.719 315.679 407 309.939 410.277C307.881 411.451 305.691 412.546 304.182 414.387C302.673 416.229 302.059 419.089 303.483 421.009C304.909 422.931 307.766 423.139 309.992 422.324C312.217 421.51 314.064 419.913 316.114 418.717C319.951 416.476 325.292 415.863 328.517 418.962C330.636 420.999 331.337 424.215 330.934 427.139C330.532 430.062 329.166 432.752 327.659 435.275C322.393 444.094 315.033 451.722 306.082 456.627C297.132 461.532 288.472 463.915 278.438 462.057Z" fill="#F5F5F5"/>
<path d="M281.17 450.01C282.28 440.496 284.363 430.168 286.911 419.441C287.558 416.762 288.198 414.114 288.828 411.505C289.463 408.902 290.093 406.32 290.864 403.834C292.386 398.852 294.23 394.179 296.118 389.798C298.005 385.414 299.956 381.323 301.807 377.511C303.668 373.701 305.469 370.183 307.247 367.047C310.785 360.758 314.233 356.033 316.732 352.885C317.978 351.306 318.985 350.114 319.679 349.315C320.014 348.935 320.275 348.636 320.473 348.411C320.654 348.21 320.751 348.11 320.758 348.116C320.766 348.122 320.684 348.235 320.517 348.448C320.33 348.682 320.081 348.992 319.765 349.388C319.1 350.21 318.121 351.424 316.902 353.021C314.459 356.206 311.074 360.949 307.59 367.245C305.838 370.385 304.062 373.905 302.222 377.718C300.39 381.537 298.457 385.628 296.587 390.007C294.717 394.383 292.891 399.043 291.385 403.999C290.621 406.473 290 409.033 289.365 411.642C288.736 414.25 288.098 416.896 287.452 419.574C284.906 430.293 282.814 440.592 281.678 450.074" fill="#E0E0E0"/>
<path d="M291.018 403.786C290.982 403.798 290.804 403.362 290.511 402.563C290.215 401.765 289.825 400.597 289.364 399.147C288.44 396.249 287.3 392.202 286.061 387.737C284.821 383.269 283.627 379.251 282.662 376.374C282.183 374.935 281.784 373.773 281.498 372.974C281.216 372.173 281.077 371.722 281.112 371.707C281.147 371.692 281.354 372.115 281.699 372.894C282.048 373.67 282.505 374.815 283.032 376.242C284.097 379.095 285.356 383.113 286.597 387.585C287.809 391.995 288.905 395.984 289.742 399.033C290.129 400.408 290.456 401.566 290.719 402.496C290.945 403.315 291.055 403.774 291.018 403.786Z" fill="#E0E0E0"/>
<path d="M328.153 390.132C328.16 390.17 327.626 390.326 326.654 390.574C325.685 390.828 324.281 391.188 322.56 391.689C319.112 392.662 314.396 394.173 309.266 396.069C304.137 397.974 299.57 399.895 296.307 401.38C294.669 402.111 293.36 402.738 292.452 403.167C291.546 403.599 291.036 403.821 291.018 403.787C291 403.752 291.477 403.464 292.354 402.971C293.233 402.483 294.52 401.799 296.14 401.019C299.37 399.437 303.93 397.451 309.073 395.54C314.218 393.64 318.972 392.183 322.457 391.306C324.196 390.853 325.619 390.551 326.606 390.362C327.595 390.178 328.144 390.094 328.153 390.132Z" fill="#E0E0E0"/>
<path d="M281.522 449.225C281.506 449.236 281.389 449.09 281.18 448.802C280.939 448.457 280.645 448.036 280.29 447.526C279.522 446.414 278.452 444.776 277.157 442.736C274.564 438.656 271.159 432.907 267.488 426.513C263.814 420.116 260.468 414.344 257.963 410.216C256.739 408.21 255.731 406.561 254.983 405.335C254.661 404.802 254.396 404.363 254.179 404.002C254.001 403.694 253.914 403.528 253.93 403.516C253.946 403.506 254.063 403.652 254.273 403.94C254.514 404.285 254.807 404.705 255.163 405.215C255.931 406.327 257.001 407.965 258.296 410.005C260.889 414.085 264.294 419.834 267.967 426.231C271.639 432.626 274.986 438.397 277.49 442.526C278.715 444.531 279.722 446.181 280.47 447.406C280.792 447.939 281.057 448.379 281.274 448.739C281.452 449.047 281.539 449.214 281.522 449.225Z" fill="#E0E0E0"/>
<path d="M329.702 424.181C329.71 424.199 329.548 424.299 329.232 424.475C328.856 424.676 328.395 424.922 327.836 425.221C326.544 425.895 324.8 426.806 322.678 427.912C318.323 430.186 312.345 433.395 305.744 436.95C299.141 440.507 293.127 443.664 288.724 445.848C286.523 446.941 284.733 447.807 283.484 448.38C282.906 448.641 282.429 448.856 282.042 449.032C281.71 449.175 281.53 449.242 281.522 449.224C281.514 449.206 281.677 449.106 281.992 448.929C282.367 448.729 282.828 448.483 283.388 448.184C284.68 447.509 286.423 446.6 288.545 445.493C292.9 443.22 298.879 440.01 305.482 436.454C312.083 432.898 318.096 429.741 322.499 427.557C324.7 426.464 326.49 425.598 327.74 425.025C328.318 424.764 328.794 424.548 329.182 424.373C329.514 424.23 329.693 424.164 329.702 424.181Z" fill="#E0E0E0"/>
<path d="M153.398 247.411C153.398 247.411 141.516 249.062 148.187 275.085C154.858 301.108 160.516 314.52 160.516 314.52C160.516 314.52 161.412 320.415 156.661 320.232C151.909 320.05 142.222 316.192 138.936 321.319C135.528 326.637 138.507 333.044 145.96 339.75C153.412 346.457 169.201 361.749 170.623 363.137C172.02 364.5 173.078 367.387 169.822 367.782C166.565 368.177 143.437 365.462 142.806 376.514C142.175 387.566 166.006 402.838 168.58 404.557C171.153 406.277 171.559 407.622 170.982 409.117C170.405 410.612 162.717 408.967 156.108 408.464C149.498 407.961 141.746 408.537 141.916 414.944C142.086 421.351 154.599 437.54 191.105 449.578L208.386 454.049L221.161 441.469C246.859 412.881 249.673 392.614 246.637 386.97C243.601 381.326 236.588 384.678 231.101 388.399C225.615 392.12 219.761 397.368 218.518 396.357C217.274 395.347 216.958 393.977 218.337 391.207C219.715 388.436 232.807 363.34 226.767 354.064C220.728 344.787 202.006 358.636 198.984 359.912C195.962 361.188 195.446 358.156 195.981 356.279C196.525 354.368 202.627 333.251 205.762 323.728C208.896 314.205 208.298 307.164 202.698 304.244C197.298 301.428 190.809 309.589 186.776 312.109C182.743 314.628 180.592 309.068 180.592 309.068C180.592 309.068 178.837 294.617 171.694 268.72C164.551 242.822 153.162 247.463 153.162 247.463" fill="#EBEBEB"/>
<path d="M208.367 458.346C203.196 439.306 194.574 405.311 187.02 376.163C179.469 347.025 172.607 320.65 167.534 301.586C164.992 292.073 162.932 284.367 161.502 279.015C160.796 276.367 160.246 274.303 159.866 272.876C159.689 272.19 159.552 271.658 159.454 271.276C159.364 270.915 159.332 270.726 159.332 270.726C159.332 270.726 159.401 270.905 159.509 271.261C159.62 271.639 159.775 272.167 159.974 272.847C160.378 274.267 160.962 276.322 161.71 278.958C163.212 284.267 165.331 291.964 167.913 301.485C173.084 320.525 180.006 346.886 187.557 376.024C195.111 405.172 203.672 439.18 208.746 458.244" fill="#E0E0E0"/>
<path d="M152.269 327.262C152.29 327.23 152.694 327.449 153.407 327.873C154.123 328.294 155.139 328.933 156.387 329.734C158.88 331.341 162.267 333.648 165.959 336.261C169.59 338.851 172.873 341.193 175.385 342.985C176.522 343.785 177.481 344.461 178.252 345.004C178.931 345.478 179.298 345.755 179.278 345.788C179.258 345.82 178.852 345.604 178.135 345.186C177.421 344.763 176.404 344.124 175.164 343.31C172.686 341.678 169.33 339.328 165.64 336.715C161.993 334.152 158.694 331.835 156.17 330.061C155.028 329.266 154.065 328.595 153.29 328.056C152.613 327.574 152.249 327.294 152.269 327.262Z" fill="#E0E0E0"/>
<path d="M180.718 344.94C180.589 344.857 185.038 337.665 190.653 328.878C196.27 320.087 200.927 313.03 201.056 313.112C201.185 313.194 196.737 320.385 191.12 329.176C185.504 337.964 180.847 345.023 180.718 344.94Z" fill="#E0E0E0"/>
<path d="M190.298 390.217C190.274 390.187 190.613 389.862 191.246 389.301C191.969 388.669 192.871 387.879 193.942 386.942C196.215 384.948 199.342 382.18 202.68 379C206.027 375.826 208.955 372.849 211.058 370.677C212.049 369.655 212.883 368.795 213.552 368.105C214.144 367.501 214.486 367.178 214.514 367.204C214.543 367.23 214.256 367.601 213.712 368.251C213.167 368.9 212.364 369.825 211.344 370.945C209.311 373.19 206.418 376.22 203.062 379.402C199.714 382.591 196.537 385.32 194.195 387.241C193.02 388.197 192.061 388.96 191.382 389.467C190.707 389.979 190.322 390.247 190.298 390.217Z" fill="#E0E0E0"/>
<path d="M161.047 379.891C161.059 379.855 161.48 379.959 162.232 380.178C163.093 380.444 164.149 380.771 165.396 381.157C168.06 382.006 171.728 383.216 175.768 384.585C179.81 385.954 183.458 387.222 186.09 388.167C187.315 388.619 188.352 389.001 189.198 389.313C189.928 389.595 190.325 389.769 190.313 389.805C190.301 389.841 189.88 389.737 189.128 389.518C188.268 389.252 187.211 388.925 185.964 388.539C183.3 387.69 179.632 386.48 175.59 385.111C171.55 383.742 167.902 382.474 165.27 381.53C164.046 381.079 163.008 380.696 162.162 380.384C161.432 380.1 161.034 379.927 161.047 379.891Z" fill="#E0E0E0"/>
<path d="M164.426 420.935C164.438 420.899 164.976 421.037 165.938 421.318C166.996 421.641 168.36 422.058 169.998 422.557C173.419 423.626 178.132 425.14 183.327 426.845C188.523 428.55 193.218 430.123 196.607 431.288C198.222 431.856 199.568 432.328 200.612 432.695C201.554 433.039 202.068 433.246 202.056 433.283C202.044 433.319 201.507 433.181 200.544 432.901C199.486 432.578 198.122 432.162 196.484 431.662C193.063 430.593 188.35 429.079 183.153 427.374C177.958 425.67 173.264 424.097 169.875 422.932C168.26 422.364 166.914 421.892 165.87 421.525C164.929 421.179 164.414 420.971 164.426 420.935Z" fill="#E0E0E0"/>
<path d="M201.239 432.732C201.213 432.703 201.632 432.281 202.411 431.541C203.265 430.738 204.379 429.69 205.721 428.427C208.513 425.795 212.355 422.145 216.482 417.996C220.617 413.852 224.26 410.003 226.878 407.198C228.136 405.852 229.181 404.734 229.981 403.878C230.717 403.097 231.138 402.677 231.167 402.702C231.196 402.727 230.83 403.196 230.143 404.022C229.456 404.848 228.444 406.027 227.168 407.462C224.622 410.337 221.017 414.236 216.875 418.387C212.741 422.543 208.85 426.155 205.987 428.715C204.552 429.992 203.381 431.013 202.556 431.701C201.732 432.393 201.264 432.761 201.239 432.732Z" fill="#E0E0E0"/>
<path d="M101.799 92.2384L92.0398 89.1934C92.0398 89.1934 89.4838 97.3874 80.9228 94.8774C76.4768 93.5744 75.0878 89.9614 74.8478 87.4514C74.5698 84.5364 75.8138 81.7014 78.0088 79.7644C80.5158 77.5514 84.9168 76.2024 91.1318 79.4134L97.9968 57.4094L88.3468 54.3994L84.3258 67.2884C84.3258 67.2884 69.7008 66.5644 65.0478 81.4794C60.5958 95.7494 72.3588 103.056 77.8368 104.765C82.0258 106.072 96.6118 109.511 101.799 92.2384Z" fill="#F5F5F5"/>
<path d="M89.6462 49.8316L99.4395 52.8867L102.293 43.7407L92.4994 40.6856L89.6462 49.8316Z" fill="#F5F5F5"/>
<path d="M128.734 67.3946L132.642 66.3636C132.642 66.3636 131.776 63.0826 135.171 62.1236C136.934 61.6256 138.158 62.5436 138.766 63.3336C139.471 64.2516 139.651 65.4626 139.323 66.5726C138.949 67.8406 137.758 69.2166 135.002 69.4476L137.326 78.2596L141.19 77.2406L139.829 72.0786C139.829 72.0786 144.879 69.2476 143.304 63.2756C141.797 57.5606 136.322 57.5856 134.128 58.1646C132.449 58.6066 126.842 60.5206 128.734 67.3946Z" fill="#EBEBEB"/>
<path d="M141.715 79.0356L137.793 80.0703L138.759 83.7329L142.681 82.6982L141.715 79.0356Z" fill="#EBEBEB"/>
<path d="M451.543 168.605L455.343 169.982C455.343 169.982 456.499 166.791 459.835 167.936C461.568 168.53 462.052 169.982 462.102 170.977C462.16 172.133 461.618 173.231 460.716 173.957C459.686 174.786 457.924 175.24 455.527 173.861L452.423 182.429L456.18 183.79L457.998 178.771C457.998 178.771 463.761 179.318 465.865 173.51C467.878 167.953 463.362 164.857 461.229 164.085C459.6 163.494 453.9 161.875 451.543 168.605Z" fill="#EBEBEB"/>
<path d="M455.587 185.565L451.774 184.184L450.484 187.745L454.297 189.127L455.587 185.565Z" fill="#EBEBEB"/>
<path d="M48.255 212.128L56.297 209.03C56.297 209.03 53.696 202.277 60.666 199.453C64.286 197.986 67.096 199.645 68.568 201.179C70.278 202.959 70.94 205.484 70.505 207.913C70.007 210.688 67.806 213.883 62.018 215.016L69.004 233.149L76.956 230.085L72.864 219.463C72.864 219.463 82.906 212.283 78.171 199.992C73.64 188.232 62.042 189.563 57.528 191.303C54.076 192.634 42.638 197.999 48.255 212.128Z" fill="#F5F5F5"/>
<path d="M78.4893 233.773L70.4189 236.883L73.323 244.42L81.3934 241.311L78.4893 233.773Z" fill="#F5F5F5"/>
<path d="M454.67 242.639L448.971 244.835C448.971 244.835 450.814 249.62 445.875 251.622C443.31 252.661 441.319 251.486 440.275 250.399C439.063 249.137 438.594 247.348 438.903 245.627C439.256 243.661 440.816 241.396 444.917 240.593L439.967 227.743L434.332 229.914L437.232 237.441C437.232 237.441 430.115 242.529 433.471 251.239C436.681 259.573 444.901 258.629 448.1 257.397C450.545 256.453 458.651 252.651 454.67 242.639Z" fill="#F5F5F5"/>
<path d="M433.263 227.306L438.982 225.103L436.924 219.761L431.205 221.965L433.263 227.306Z" fill="#F5F5F5"/>
<path d="M470.771 463.772C470.771 463.916 371.92 464.032 250.01 464.032C128.057 464.032 29.2275 463.915 29.2275 463.772C29.2275 463.629 128.057 463.512 250.01 463.512C371.921 463.511 470.771 463.628 470.771 463.772Z" fill="#263238"/>
<path d="M92.6374 437.801C93.5864 434.124 91.1754 430.431 88.4724 427.763C85.7694 425.095 82.5374 422.704 81.1314 419.177C78.8534 413.461 81.9164 406.061 78.0284 401.292C75.7414 398.486 71.6394 397.548 69.6104 394.551C68.5454 392.979 68.2014 391.047 67.7834 389.195C65.6494 379.749 60.9214 370.902 54.2544 363.879C53.7904 372.291 55.6464 380.819 59.5624 388.278C61.1364 391.276 63.0704 394.199 63.5924 397.545C64.4394 402.979 61.4064 408.576 62.7414 413.911C64.2674 420.012 71.1214 424.096 71.4464 430.377C71.7214 435.687 67.0934 440.348 67.4384 445.654C67.5854 447.913 68.6344 450.011 69.8014 451.951C73.9074 458.777 79.9384 463.478 89.0804 463.325L100.277 463.717L92.6374 437.801Z" fill="#EDDC11"/>
<g opacity="0.3">
<path d="M92.6374 437.801C93.5864 434.124 91.1754 430.431 88.4724 427.763C85.7694 425.095 82.5374 422.704 81.1314 419.177C78.8534 413.461 81.9164 406.061 78.0284 401.292C75.7414 398.486 71.6394 397.548 69.6104 394.551C68.5454 392.979 68.2014 391.047 67.7834 389.195C65.6494 379.749 60.9214 370.902 54.2544 363.879C53.7904 372.291 55.6464 380.819 59.5624 388.278C61.1364 391.276 63.0704 394.199 63.5924 397.545C64.4394 402.979 61.4064 408.576 62.7414 413.911C64.2674 420.012 71.1214 424.096 71.4464 430.377C71.7214 435.687 67.0934 440.348 67.4384 445.654C67.5854 447.913 68.6344 450.011 69.8014 451.951C73.9074 458.777 79.9384 463.478 89.0804 463.325L100.277 463.717L92.6374 437.801Z" fill="black"/>
</g>
<path d="M102.543 464.012C102.543 464.012 103.611 464.26 105.626 463.945C106.63 463.798 107.865 463.532 109.265 463.029C110.657 462.52 112.241 461.795 113.759 460.568C114.488 459.931 115.216 459.146 115.607 458.105C115.993 457.069 116.063 455.929 116.134 454.76C116.194 453.589 116.195 452.371 116.395 451.138C116.584 449.905 117.068 448.694 117.763 447.537C119.084 445.218 121.275 443.022 121.984 439.873C122.75 436.776 122.201 433.424 121.68 430.058C121.16 426.7 120.657 423.038 121.941 419.539C123.142 416.037 125.598 412.876 126.825 408.928C128.047 404.941 127.478 400.652 127.736 396.422C127.854 394.297 128.265 392.173 129.195 390.205C130.101 388.223 131.358 386.354 132.339 384.267C134.326 380.049 134.677 375.268 135.221 370.582C135.486 368.221 135.754 365.836 136.024 363.427C136.291 361.006 136.506 358.596 137.268 356.266C137.958 353.919 138.957 351.649 139.947 349.336C140.431 348.173 140.944 347.009 141.246 345.717C141.465 344.397 141.528 343.162 141.607 341.866C141.733 339.299 141.627 336.697 141.309 334.115C141.005 331.531 140.539 328.969 140.261 326.379C140.244 326.226 140.227 326.073 140.211 325.932L140.153 325.416L139.694 325.645C137.296 326.846 135.243 328.634 133.666 330.732C132.062 332.816 130.895 335.167 129.962 337.557C128.092 342.368 127.418 347.41 126.475 352.22C125.554 357.031 124.341 361.764 121.874 365.763C120.647 367.757 119.162 369.578 117.863 371.523C116.567 373.454 115.427 375.576 115.084 377.905C114.422 382.642 117.031 386.802 116.488 390.996C116.294 393.08 115.465 395.029 114.445 396.807C113.428 398.596 112.233 400.255 111.099 401.923C109.966 403.59 108.887 405.281 108.093 407.089C107.285 408.891 106.84 410.818 106.717 412.702C106.444 416.478 106.98 420.06 106.703 423.442C106.476 426.829 105.286 429.9 103.94 432.645C102.586 435.4 101.079 437.891 99.8175 440.307C99.1825 441.514 98.5975 442.692 98.1205 443.875C97.6155 445.055 97.3675 446.265 97.1375 447.415C96.7695 449.737 96.8055 451.899 97.0545 453.807C97.5415 457.643 98.9715 460.405 100.258 461.957C100.553 462.371 100.895 462.664 101.164 462.938C101.427 463.221 101.687 463.412 101.899 463.562C102.32 463.871 102.543 464.012 102.543 464.012C102.592 463.955 101.621 463.441 100.375 461.868C99.1425 460.307 97.7745 457.565 97.3355 453.772C97.1105 451.887 97.0975 449.752 97.4785 447.473C97.7145 446.347 97.9675 445.161 98.4685 444.016C98.9445 442.861 99.5365 441.688 100.176 440.495C101.448 438.101 102.971 435.62 104.354 432.847C105.727 430.089 106.963 426.957 107.214 423.482C107.508 420.028 106.988 416.433 107.274 412.746C107.403 410.902 107.836 409.064 108.624 407.321C109.4 405.572 110.463 403.913 111.596 402.258C112.729 400.602 113.938 398.936 114.984 397.11C116.03 395.296 116.908 393.267 117.121 391.061C117.661 386.593 115.071 382.405 115.744 378.002C116.067 375.824 117.15 373.794 118.429 371.898C119.707 369.989 121.2 368.167 122.464 366.122C125.009 362.008 126.242 357.185 127.172 352.354C128.124 347.513 128.798 342.525 130.635 337.813C131.549 335.471 132.692 333.179 134.241 331.167C135.766 329.14 137.731 327.435 140.015 326.289L139.499 326.003C139.515 326.145 139.532 326.3 139.55 326.455C139.831 329.075 140.299 331.642 140.6 334.196C140.915 336.749 141.019 339.299 140.897 341.829C140.824 343.077 140.748 344.387 140.553 345.564C140.279 346.742 139.777 347.903 139.297 349.055C138.314 351.359 137.301 353.663 136.598 356.061C135.82 358.447 135.597 360.949 135.337 363.341C135.07 365.752 134.805 368.139 134.543 370.501C134.008 375.206 133.657 379.91 131.743 383.983C130.797 386.01 129.542 387.885 128.61 389.932C127.648 391.975 127.221 394.219 127.109 396.379C126.865 400.7 127.427 404.924 126.258 408.752C125.097 412.562 122.655 415.74 121.42 419.353C120.099 423.004 120.646 426.785 121.18 430.133C121.721 433.504 122.264 436.786 121.542 439.763C120.895 442.771 118.766 444.946 117.418 447.332C116.717 448.516 116.214 449.797 116.029 451.077C115.833 452.352 115.843 453.582 115.794 454.743C115.736 455.896 115.67 457.028 115.316 457.998C114.964 458.965 114.279 459.729 113.579 460.354C112.117 461.564 110.561 462.304 109.193 462.828C107.816 463.347 106.597 463.633 105.606 463.801C104.614 463.981 103.844 464.006 103.328 464.021C102.81 464.003 102.543 464.012 102.543 464.012Z" fill="#263238"/>
<path d="M137.924 332.097C137.912 332.094 137.875 332.209 137.816 332.435C137.75 332.703 137.669 333.034 137.569 333.443C137.349 334.325 137.086 335.656 136.664 337.32C136.224 338.978 135.208 340.855 134.34 343.168C133.437 345.463 132.521 348.122 131.679 351.111C130.825 354.097 130.068 357.413 129.277 360.965C128.461 364.511 127.646 368.314 125.693 371.901C124.775 373.72 123.742 375.561 122.921 377.575C122.08 379.589 121.626 381.791 121.309 384C120.771 388.436 119.957 392.94 118.895 397.547C116.65 406.723 114.511 415.463 112.564 423.421C110.57 431.352 108.773 438.499 107.258 444.523C105.784 450.493 104.586 455.344 103.741 458.765C103.352 460.407 103.044 461.703 102.82 462.646C102.73 463.057 102.657 463.39 102.598 463.66C102.552 463.89 102.534 464.008 102.546 464.012C102.558 464.015 102.6 463.902 102.669 463.679C102.746 463.414 102.842 463.087 102.96 462.683C103.215 461.748 103.567 460.463 104.012 458.835C104.91 455.427 106.183 450.596 107.75 444.65C109.308 438.636 111.155 431.503 113.206 423.586C115.172 415.626 117.33 406.884 119.597 397.705C120.66 393.103 121.482 388.516 122.007 384.102C122.318 381.907 122.751 379.785 123.559 377.832C124.35 375.869 125.368 374.038 126.286 372.199C128.256 368.545 129.076 364.626 129.861 361.095C130.627 357.534 131.353 354.227 132.171 351.247C132.978 348.265 133.855 345.61 134.718 343.313C135.542 341.007 136.525 339.108 136.937 337.394C137.325 335.69 137.538 334.372 137.714 333.474C137.786 333.059 137.844 332.723 137.891 332.451C137.924 332.219 137.936 332.099 137.924 332.097Z" fill="#263238"/>
<path d="M104.519 464.046C111.833 459.698 113.932 446.503 110.881 438.56C107.83 430.617 102.49 423.36 101.666 414.892C101.033 408.382 103.165 401.701 101.649 395.339C99.6034 386.752 91.2204 380.101 91.3164 371.275C91.3704 366.323 94.1884 361.663 93.9634 356.715C93.6884 350.646 89.0304 345.832 86.1454 340.486C81.7294 332.303 81.4394 322.628 79.9294 313.453C78.4194 304.278 74.9234 294.452 66.7914 289.943C65.5904 297.732 63.5404 303.067 64.1844 313.62C64.4154 317.41 68.8184 324.665 69.4174 332.971C69.7754 337.935 70.0234 342.907 70.3264 347.875C70.6214 352.71 70.9344 357.632 72.6674 362.155C73.9954 365.621 76.1294 368.77 77.1154 372.348C78.9704 379.08 76.5334 386.371 78.0314 393.192C79.3004 398.97 83.2994 403.943 84.1164 409.803C85.2644 418.036 79.9364 426.59 82.6634 434.442C84.0174 438.339 87.2224 441.467 88.1314 445.491C88.8374 448.613 88.0674 451.918 88.7074 455.054C89.7374 460.107 99.3744 464.031 104.521 463.718" fill="#EDDC11"/>
<path d="M68.8074 297.676C68.7954 297.678 68.8064 297.827 68.8394 298.116C68.8814 298.443 68.9364 298.865 69.0044 299.396C69.1724 300.521 69.3604 302.173 69.7414 304.309C70.1504 306.457 71.2564 308.875 72.1414 311.791C73.0744 314.698 74.0034 318.052 74.8234 321.806C75.6584 325.559 76.3564 329.712 77.0894 334.182C77.8474 338.619 78.6214 343.522 80.8384 348.176C81.8644 350.514 83.0154 352.854 83.8794 355.347C84.7644 357.831 85.1724 360.503 85.4224 363.25C85.8004 368.768 86.5354 374.506 87.5674 380.288C89.8074 391.83 91.9415 402.823 93.8835 412.829C95.9305 422.796 97.7745 431.775 99.3275 439.334C100.895 446.838 102.167 452.926 103.058 457.19C103.506 459.258 103.858 460.882 104.108 462.038C104.229 462.559 104.325 462.974 104.399 463.295C104.468 463.577 104.51 463.721 104.522 463.718C104.534 463.715 104.517 463.567 104.471 463.28C104.414 462.955 104.341 462.536 104.25 462.009C104.031 460.847 103.724 459.214 103.332 457.135C102.495 452.86 101.299 446.756 99.8254 439.233C98.3154 431.665 96.5234 422.676 94.5334 412.697C92.6094 402.694 90.4964 391.704 88.2764 380.166C87.2444 374.378 86.5144 368.724 86.1244 363.184C85.8694 360.421 85.4444 357.669 84.5294 355.122C83.6394 352.576 82.4724 350.226 81.4454 347.908C79.2404 343.323 78.4665 338.535 77.6775 334.082C76.9195 329.62 76.1894 325.455 75.3204 321.694C74.4644 317.931 73.4975 314.571 72.5245 311.665C71.5955 308.739 70.4544 306.342 70.0154 304.249C69.5984 302.152 69.3615 300.483 69.1485 299.373C69.0515 298.847 68.9735 298.429 68.9135 298.104C68.8555 297.819 68.8204 297.674 68.8074 297.676Z" fill="#263238"/>
<path d="M145.067 201.384H202.82C202.82 201.384 202.82 152.893 253.213 152.025C279.384 151.574 292.954 168.717 298.467 181.851C304.869 197.102 302.932 214.484 294.354 228.626C284.558 244.777 263.462 261.005 224.54 254.148L224.172 382.817H281.278V306.539C281.278 306.539 361.37 285.835 361.37 197.57C361.37 113.119 293.077 94.8761 256.375 93.7041C235.951 93.0521 228.548 92.1741 203.288 95.7601C171.098 100.33 144.386 137.706 145.067 201.384Z" fill="#EDDC11"/>
<path d="M281.968 409.644H224.012V463.773H281.968V409.644Z" fill="#EDDC11"/>
<path opacity="0.1" d="M281.968 409.644H224.012V463.773H281.968V409.644Z" fill="black"/>
<path opacity="0.1" d="M145.067 201.384H202.82C202.82 201.384 202.82 152.893 253.213 152.025C279.384 151.574 292.954 168.717 298.467 181.851C304.869 197.102 302.932 214.484 294.354 228.626C284.558 244.777 263.462 261.005 224.54 254.148L224.172 382.817H281.278V306.539C281.278 306.539 361.37 285.835 361.37 197.57C361.37 113.119 293.077 94.8761 256.375 93.7041C235.951 93.0521 228.548 92.1741 203.288 95.7601C171.098 100.33 144.386 137.706 145.067 201.384Z" fill="black"/>
<path d="M121.144 201.384H178.897C178.897 201.384 178.897 152.893 229.29 152.025C255.461 151.574 269.031 168.717 274.544 181.851C280.946 197.102 279.009 214.484 270.431 228.626C260.635 244.777 239.17 259.457 200.249 252.599V382.816H257.355V306.538C257.355 306.538 337.447 285.834 337.447 197.569C337.447 113.118 261.714 93.5039 229.296 93.5039C204.505 93.5059 120.055 99.4989 121.144 201.384Z" fill="#EDDC11"/>
<path opacity="0.3" d="M121.144 201.384H178.897C178.897 201.384 178.897 152.893 229.29 152.025C255.461 151.574 269.031 168.717 274.544 181.851C280.946 197.102 279.009 214.484 270.431 228.626C260.635 244.777 239.17 259.457 200.249 252.599V382.816H257.355V306.538C257.355 306.538 337.447 285.834 337.447 197.569C337.447 113.118 261.714 93.5039 229.296 93.5039C204.505 93.5059 120.055 99.4989 121.144 201.384Z" fill="black"/>
<path d="M258.045 409.643H200.089V463.772H258.045V409.643Z" fill="#EDDC11"/>
<path opacity="0.3" d="M258.045 409.643H200.089V463.772H258.045V409.643Z" fill="black"/>
<path d="M235.813 152.295C235.81 152.313 235.512 152.294 234.949 152.242C234.384 152.213 233.562 152.054 232.488 152.042C230.349 151.9 227.235 151.955 223.432 152.418C219.633 152.894 215.145 153.835 210.359 155.493C207.98 156.351 205.506 157.336 203.075 158.626C200.623 159.869 198.196 161.39 195.952 163.239C193.695 165.069 191.786 167.205 190.122 169.399C188.452 171.586 187.006 173.82 185.753 176.019C183.297 180.447 181.619 184.719 180.581 188.404C179.519 192.087 179.055 195.167 178.844 197.298C178.721 198.364 178.689 199.196 178.659 199.761C178.626 200.325 178.6 200.622 178.582 200.622C178.564 200.622 178.555 200.325 178.554 199.758C178.55 199.191 178.549 198.354 178.642 197.28C178.791 195.133 179.202 192.024 180.226 188.304C181.226 184.58 182.88 180.263 185.334 175.784C186.586 173.56 188.036 171.301 189.717 169.088C191.387 166.874 193.321 164.702 195.621 162.836C197.902 160.957 200.361 159.422 202.84 158.172C205.3 156.875 207.799 155.891 210.201 155.039C215.032 153.393 219.559 152.484 223.387 152.052C227.219 151.634 230.354 151.635 232.5 151.84C233.577 151.883 234.4 152.075 234.962 152.138C235.523 152.224 235.816 152.277 235.813 152.295Z" fill="#263238"/>
<path d="M322.829 141.983C322.821 141.988 322.758 141.911 322.641 141.756C322.51 141.576 322.343 141.347 322.135 141.061C321.679 140.414 321.043 139.511 320.235 138.364C319.819 137.782 319.384 137.114 318.859 136.42C318.303 135.746 317.701 135.016 317.056 134.233C316.409 133.446 315.719 132.607 314.989 131.717C314.236 130.845 313.36 129.994 312.485 129.062C311.589 128.149 310.698 127.145 309.683 126.187C308.647 125.25 307.569 124.276 306.454 123.268C305.891 122.77 305.341 122.237 304.742 121.742C304.131 121.261 303.511 120.773 302.881 120.277C301.612 119.3 300.351 118.233 298.976 117.249C293.496 113.279 287.085 109.463 280.053 106.073C278.274 105.268 276.516 104.473 274.783 103.69C273.01 103.002 271.264 102.324 269.547 101.658C267.845 100.952 266.104 100.45 264.423 99.8954C262.732 99.3704 261.103 98.7624 259.454 98.3774C257.818 97.9474 256.222 97.5284 254.671 97.1204C253.121 96.7094 251.581 96.4664 250.111 96.1454C248.632 95.8694 247.221 95.5014 245.834 95.3284C244.452 95.1284 243.125 94.9364 241.857 94.7534C239.33 94.3204 237.011 94.2344 234.987 94.0304C233.973 93.9504 233.031 93.8424 232.161 93.8014C231.293 93.7784 230.498 93.7564 229.778 93.7374C228.375 93.6924 227.271 93.6564 226.479 93.6314C226.126 93.6144 225.843 93.6014 225.621 93.5904C225.428 93.5784 225.328 93.5674 225.328 93.5584C225.328 93.5494 225.427 93.5424 225.62 93.5374C225.843 93.5344 226.126 93.5314 226.479 93.5264C227.272 93.5284 228.377 93.5314 229.783 93.5344C230.504 93.5404 231.302 93.5464 232.172 93.5534C233.045 93.5794 233.99 93.6734 235.007 93.7394C237.038 93.9164 239.366 93.9774 241.903 94.3874C243.176 94.5604 244.509 94.7424 245.897 94.9314C247.29 95.0944 248.708 95.4534 250.194 95.7214C251.671 96.0344 253.219 96.2694 254.776 96.6744C256.334 97.0764 257.938 97.4904 259.582 97.9144C261.239 98.2954 262.876 98.8994 264.575 99.4214C266.265 99.9744 268.013 100.474 269.724 101.179C271.448 101.845 273.203 102.523 274.984 103.212C276.724 103.998 278.49 104.795 280.276 105.603C287.337 109.007 293.77 112.853 299.259 116.862C300.636 117.856 301.898 118.933 303.168 119.921C303.797 120.422 304.418 120.916 305.028 121.402C305.627 121.902 306.177 122.441 306.739 122.945C307.852 123.965 308.927 124.951 309.962 125.899C310.974 126.869 311.861 127.886 312.752 128.81C313.622 129.755 314.493 130.617 315.238 131.501C315.961 132.403 316.643 133.254 317.282 134.052C317.917 134.847 318.51 135.588 319.057 136.273C319.572 136.978 319.996 137.657 320.4 138.25C321.176 139.423 321.786 140.346 322.223 141.007C322.413 141.305 322.566 141.543 322.686 141.73C322.788 141.892 322.836 141.979 322.829 141.983Z" fill="#263238"/>
<path d="M316.812 265.978C316.826 265.989 316.675 266.195 316.375 266.578C316.039 266.996 315.596 267.547 315.043 268.235C314.466 268.956 313.745 269.826 312.863 270.797C311.987 271.773 311.018 272.912 309.856 274.086C308.718 275.283 307.463 276.586 306.047 277.917C304.67 279.288 303.107 280.655 301.481 282.114C298.173 284.966 294.404 287.954 290.261 290.83C286.098 293.68 281.965 296.141 278.122 298.219C276.18 299.221 274.347 300.195 272.575 300.995C270.828 301.845 269.163 302.554 267.64 303.193C266.13 303.862 264.72 304.361 263.497 304.833C262.276 305.312 261.207 305.677 260.328 305.96C259.489 306.232 258.817 306.45 258.306 306.616C257.842 306.76 257.596 306.828 257.59 306.811C257.584 306.794 257.819 306.693 258.272 306.517C258.774 306.328 259.434 306.08 260.259 305.77C261.126 305.458 262.183 305.067 263.391 304.563C264.602 304.066 265.998 303.544 267.495 302.856C269.005 302.198 270.655 301.471 272.389 300.607C274.147 299.793 275.966 298.808 277.894 297.799C281.71 295.705 285.819 293.243 289.965 290.404C294.091 287.539 297.853 284.576 301.167 281.754C302.796 280.311 304.364 278.961 305.749 277.608C307.173 276.295 308.439 275.011 309.591 273.834C310.767 272.68 311.751 271.56 312.646 270.606C313.547 269.656 314.289 268.807 314.888 268.107C315.471 267.446 315.939 266.917 316.293 266.515C316.62 266.15 316.798 265.966 316.812 265.978Z" fill="#263238"/>
<path d="M256.345 378.283C256.201 378.283 256.085 362.22 256.085 342.41C256.085 322.593 256.202 306.534 256.345 306.534C256.489 306.534 256.605 322.593 256.605 342.41C256.605 362.22 256.489 378.283 256.345 378.283Z" fill="#263238"/>
<path d="M258.548 460.101C258.404 460.101 258.288 448.829 258.288 434.927C258.288 421.021 258.405 409.751 258.548 409.751C258.692 409.751 258.808 421.021 258.808 434.927C258.808 448.829 258.691 460.101 258.548 460.101Z" fill="#263238"/>
<path d="M315.399 193.709C314.39 195.723 318.127 197.346 320.283 197.998C322.439 198.65 324.739 198.582 326.988 198.46C329.968 198.299 333.056 198.021 335.648 196.541C337.951 195.226 339.668 193.051 340.868 190.686C342.068 188.321 342.796 185.75 343.518 183.198C343.518 183.198 319.891 184.745 315.399 193.709Z" fill="#EDDC11"/>
<g opacity="0.4">
<path d="M315.399 193.709C314.39 195.723 318.127 197.346 320.283 197.998C322.439 198.65 324.739 198.582 326.988 198.46C329.968 198.299 333.056 198.021 335.648 196.541C337.951 195.226 339.668 193.051 340.868 190.686C342.068 188.321 342.796 185.75 343.518 183.198C343.518 183.198 319.891 184.745 315.399 193.709Z" fill="black"/>
</g>
<path d="M382.144 187.306C385.999 190.061 390.743 191.55 395.48 191.493C397.75 191.466 400.155 191.027 401.831 189.496C402.602 188.792 403.177 187.891 403.971 187.212C404.51 186.752 405.14 186.402 405.647 185.907C406.154 185.412 406.536 184.702 406.383 184.01C406.227 183.302 405.633 182.16 405.002 181.802C402.288 180.262 399.051 180.318 395.932 180.389C392.813 180.461 389.739 181.188 386.782 182.183C384.364 182.997 381.829 184.145 380.602 186.383" fill="#EDDC11"/>
<g opacity="0.4">
<path d="M406.383 184.01C406.227 183.302 405.241 182.359 404.61 182.001C401.896 180.461 399.051 180.318 395.932 180.39C392.813 180.462 389.739 181.189 386.782 182.184C384.364 182.998 381.829 184.146 380.602 186.384L382.144 187.308C385.999 190.062 390.743 191.552 395.48 191.495C397.75 191.468 400.155 191.029 401.83 189.498C402.601 188.794 403.176 187.893 403.97 187.214C404.509 186.754 405.139 186.404 405.646 185.909C406.153 185.412 406.535 184.702 406.383 184.01Z" fill="black"/>
</g>
<path d="M336.02 223.203L385.871 223.856C386.309 223.862 386.623 223.437 386.489 223.02L380.641 204.78C380.641 204.78 381.503 195.666 382.694 184.697C384.501 168.052 386.906 147.124 386.937 147.181C383.533 137.626 363.414 135.996 363.414 135.996L340.483 137.36L339.676 136.014L333.077 139.082C331.637 139.752 330.257 140.533 328.937 141.417C324.583 144.334 314.076 151.017 312.161 158.474C307.734 175.716 315.233 194.967 315.233 194.967L320.046 191.205C321.304 190.25 322.5 189.429 323.866 188.652L333.527 214.537C333.527 214.537 331.516 215.762 331.431 217.86C331.347 219.957 332.472 222.485 336.02 223.203Z" fill="#EDDC11"/>
<g opacity="0.3">
<path d="M357.39 192.681C358.971 184.183 358.136 175.444 357.295 166.842C354.527 173.88 354.628 181.812 351.699 188.784C351.383 189.536 351.029 190.286 350.919 191.094C350.808 191.902 350.984 192.798 351.585 193.349C352.381 194.077 353.568 193.685 354.639 193.556C355.772 193.42 356.369 193.032 357.39 192.681Z" fill="black"/>
</g>
<g opacity="0.4">
<path d="M339.028 212.355C343.053 213.75 347.285 211.162 351.52 210.702C354.318 210.398 357.119 211.04 359.897 211.491C365.51 212.402 371.247 212.543 376.898 211.908C377.76 211.811 378.644 211.689 379.399 211.263C380.154 210.837 380.762 209.646 380.706 208.781C371.292 207.815 361.877 207.239 352.462 206.273C350.102 206.031 347.666 205.796 345.4 206.498C342.554 207.38 340.361 209.615 338.356 211.818" fill="black"/>
</g>
<path d="M404.944 180.715C400.868 171.552 386.519 146.19 386.519 146.19L375.405 160.123L377.999 187.474C377.999 187.474 383.867 180.923 400.275 180.793C404.099 180.763 406.382 184.009 406.382 184.009L404.944 180.715Z" fill="#EDDC11"/>
<path d="M338.228 175.874C338.089 175.911 337.25 173.233 336.355 169.892C335.459 166.55 334.846 163.812 334.985 163.775C335.124 163.738 335.962 166.416 336.858 169.757C337.753 173.098 338.366 175.837 338.228 175.874Z" fill="#263238"/>
<path d="M374.566 158.269C374.591 158.243 374.955 158.554 375.594 159.143C376.218 159.746 377.1 160.646 378.07 161.864C380.01 164.266 382.384 168.022 383.376 172.723C383.873 175.06 383.954 177.367 383.695 179.422C383.437 181.468 383.045 183.267 382.794 184.791C382.529 186.311 382.374 187.548 382.294 188.407C382.216 189.265 382.195 189.744 382.155 189.744C382.124 189.745 382.076 189.265 382.092 188.395C382.11 187.526 382.211 186.269 382.431 184.734C382.637 183.198 382.992 181.383 383.219 179.366C383.446 177.359 383.353 175.114 382.868 172.832C381.901 168.242 379.625 164.524 377.78 162.091C375.93 159.626 374.489 158.345 374.566 158.269Z" fill="#263238"/>
<path d="M364.388 221.023C364.396 221.058 364.011 221.168 363.303 221.339C362.95 221.43 362.515 221.526 362.001 221.592C361.489 221.664 360.908 221.775 360.256 221.804C358.957 221.929 357.398 221.925 355.677 221.778C353.96 221.599 352.085 221.257 350.176 220.676C348.273 220.073 346.534 219.293 345.017 218.468C343.515 217.615 342.228 216.734 341.229 215.896C340.708 215.503 340.293 215.082 339.911 214.733C339.525 214.388 339.221 214.063 338.982 213.788C338.495 213.247 338.24 212.938 338.266 212.913C338.341 212.841 339.414 214.041 341.457 215.607C342.471 216.397 343.759 217.231 345.247 218.047C346.75 218.834 348.463 219.587 350.331 220.179C352.205 220.749 354.042 221.098 355.727 221.301C357.415 221.471 358.949 221.513 360.232 221.436C362.802 221.303 364.367 220.921 364.388 221.023Z" fill="#263238"/>
<path d="M379.783 215.321C379.843 215.308 380.038 215.854 380.168 216.78C380.287 217.701 380.312 219.03 379.899 220.425C379.503 221.827 378.669 222.926 377.94 223.522C377.209 224.131 376.647 224.323 376.622 224.272C376.578 224.197 377.064 223.893 377.688 223.253C378.313 222.621 379.028 221.587 379.399 220.276C380.157 217.635 379.587 215.333 379.783 215.321Z" fill="#263238"/>
<path d="M377.072 218.843C377.202 218.812 377.467 220.272 376.819 221.92C376.186 223.574 375.006 224.474 374.931 224.363C374.82 224.254 375.754 223.26 376.333 221.732C376.935 220.213 376.917 218.848 377.072 218.843Z" fill="#263238"/>
<path d="M368.146 185.938C368.252 186.046 367.328 187.09 366.368 188.498C365.399 189.901 364.757 191.138 364.619 191.078C364.491 191.029 364.936 189.656 365.939 188.203C366.933 186.746 368.054 185.837 368.146 185.938Z" fill="#263238"/>
<path d="M333.933 161.721C333.878 161.786 333.087 161.147 331.722 160.256C330.36 159.363 328.389 158.261 326.065 157.39C323.738 156.525 321.526 156.066 319.912 155.848C318.297 155.627 317.282 155.591 317.282 155.506C317.281 155.447 318.302 155.352 319.952 155.482C321.599 155.609 323.871 156.02 326.246 156.903C328.618 157.792 330.603 158.971 331.93 159.954C333.262 160.936 333.972 161.677 333.933 161.721Z" fill="#263238"/>
<path d="M386.525 145.858C386.621 145.995 383.925 147.642 381.473 150.586C378.99 153.505 377.828 156.443 377.676 156.371C377.617 156.348 377.83 155.587 378.373 154.431C378.913 153.277 379.819 151.746 381.075 150.25C382.335 148.757 383.688 147.604 384.733 146.875C385.778 146.144 386.493 145.805 386.525 145.858Z" fill="#263238"/>
<path d="M365.938 137.618C365.955 137.611 366.031 137.77 366.163 138.081C366.311 138.387 366.463 138.86 366.629 139.483C366.945 140.725 367.115 142.635 366.61 144.899C366.09 147.135 364.842 149.74 362.53 151.791C360.238 153.855 356.864 155.08 353.33 155.068C349.787 155.044 346.464 153.833 344.041 151.963C341.587 150.117 339.964 147.81 338.929 145.767C337.912 143.699 337.439 141.882 337.226 140.621C337.123 139.988 337.061 139.496 337.046 139.158C337.023 138.822 337.019 138.646 337.037 138.644C337.089 138.638 337.151 139.343 337.425 140.581C337.696 141.817 338.217 143.591 339.256 145.598C340.313 147.581 341.93 149.808 344.327 151.577C346.691 153.368 349.904 154.521 353.332 154.546C356.75 154.557 359.999 153.39 362.214 151.429C364.453 149.479 365.701 146.975 366.251 144.812C366.787 142.623 366.68 140.758 366.43 139.526C366.184 138.285 365.877 137.641 365.938 137.618Z" fill="#263238"/>
<g opacity="0.3">
<path d="M369.436 187.711C369.421 187.211 369.356 186.623 368.922 186.373C368.649 186.216 368.298 186.25 368.016 186.388C367.733 186.526 367.506 186.754 367.292 186.985C366.081 188.297 365.235 189.579 364.619 191.255L369.521 190.832C369.49 189.799 369.468 188.745 369.436 187.711Z" fill="black"/>
</g>
<g opacity="0.3">
<path d="M385.708 177.399C385.332 174.595 383.9 172.03 382.155 169.804C384.266 176.725 383.56 180.629 382.372 185.368L382.628 184.706C383.99 181.936 386.084 180.202 385.708 177.399Z" fill="black"/>
</g>
<path d="M375.917 409.859L372.926 454.713L353.425 454.484L350.355 407.852L375.917 409.859Z" fill="#7F3E3B"/>
<path d="M373.483 448.809L373.487 450.106C373.487 450.106 395.468 458.953 395.699 463.125L352.04 462.869L352.719 448.344C359.192 451.389 365.984 451.767 373.483 448.809Z" fill="#EDDC11"/>
<path d="M357.112 453.015C356.266 453.241 355.676 454.188 355.867 455.042C356.058 455.897 357.015 456.505 357.866 456.293C358.716 456.082 359.459 454.967 359.173 454.139C358.888 453.311 357.724 452.659 356.95 453.068" fill="white"/>
<path d="M352.04 462.869L352.203 459.376L393.988 460.9C393.988 460.9 395.927 461.757 395.699 463.125L352.04 462.869Z" fill="#263238"/>
<path d="M373.639 450.228C373.631 450.441 372.564 450.531 371.511 451.211C370.44 451.863 369.894 452.783 369.699 452.697C369.503 452.655 369.828 451.382 371.117 450.582C372.399 449.771 373.687 450.033 373.639 450.228Z" fill="#263238"/>
<path d="M378.207 452.15C378.255 452.357 377.329 452.714 376.6 453.612C375.844 454.488 375.656 455.462 375.444 455.451C375.243 455.483 375.103 454.234 376.031 453.135C376.949 452.029 378.204 451.947 378.207 452.15Z" fill="#263238"/>
<path d="M380.776 457.646C380.582 457.691 380.292 456.624 380.846 455.459C381.392 454.29 382.4 453.836 382.489 454.014C382.608 454.19 381.957 454.813 381.517 455.776C381.054 456.727 380.988 457.626 380.776 457.646Z" fill="#263238"/>
<path d="M372.361 81.8537C373.486 79.0487 372.123 75.6577 369.688 73.8677C367.253 72.0777 364.009 71.6917 361.025 72.1647C358.04 72.6367 355.242 73.8827 352.483 75.1157C349.981 72.6017 346.026 71.6497 342.654 72.7507C339.282 73.8517 336.651 76.9547 336.115 80.4607C333.966 79.9157 331.543 80.6497 330.058 82.2957C328.573 83.9417 328.091 86.4277 328.854 88.5097L342.371 93.2577L357.134 119.225C361.45 122.908 368.508 122.809 372.718 119.005C376.928 115.201 377.741 108.189 374.512 103.523C375.346 102.794 376.031 101.914 376.586 100.958C378.926 99.5117 380.757 97.2547 381.363 94.5597C382.648 88.8507 378.173 82.5347 372.361 81.8537Z" fill="#263238"/>
<path d="M363.413 135.995C362.574 131.768 361.989 128.873 361.997 128.903C361.997 128.903 369.967 125.8 369.418 114.667C369.145 109.131 367.033 100.402 365.074 93.3161C363.311 86.9381 357.365 79.9061 351.068 81.9391L332.024 91.2401C330.111 91.8571 329.776 93.6541 330.227 95.6131L330.258 96.5681L337.668 127.226L340.798 140.928C342.183 146.758 347.789 150.567 353.719 149.708C360.282 148.759 364.705 142.5 363.413 135.995Z" fill="#7F3E3B"/>
<path d="M364.948 100.723C365.127 101.447 364.661 102.196 363.908 102.397C363.157 102.597 362.401 102.174 362.222 101.45C362.043 100.726 362.509 99.9765 363.26 99.7765C364.013 99.5755 364.769 99.9995 364.948 100.723Z" fill="#263238"/>
<path d="M364.128 98.5941C363.994 98.8101 362.785 98.2551 361.299 98.5711C359.81 98.8651 358.879 99.8591 358.68 99.7111C358.584 99.6471 358.69 99.2851 359.093 98.8401C359.488 98.3981 360.216 97.8951 361.143 97.7051C362.07 97.5161 362.921 97.6931 363.442 97.9481C363.972 98.2021 364.195 98.4961 364.128 98.5941Z" fill="#263238"/>
<path d="M350.478 104.04C350.657 104.764 350.191 105.513 349.438 105.714C348.686 105.914 347.931 105.491 347.752 104.767C347.573 104.043 348.039 103.293 348.79 103.093C349.544 102.892 350.299 103.316 350.478 104.04Z" fill="#263238"/>
<path d="M349.749 102.119C349.615 102.335 348.405 101.78 346.92 102.096C345.431 102.39 344.5 103.384 344.301 103.236C344.205 103.172 344.309 102.811 344.714 102.365C345.109 101.922 345.837 101.42 346.764 101.229C347.691 101.04 348.542 101.218 349.063 101.472C349.592 101.728 349.816 102.021 349.749 102.119Z" fill="#263238"/>
<path d="M357.279 111.526C357.254 111.443 358.145 111.089 359.603 110.584C359.974 110.465 360.318 110.314 360.328 110.042C360.36 109.749 360.115 109.373 359.839 108.97C359.289 108.126 358.714 107.242 358.11 106.315C355.687 102.526 353.848 99.3775 354.002 99.2815C354.155 99.1855 356.244 102.179 358.666 105.968C359.254 106.904 359.816 107.797 360.352 108.651C360.586 109.052 360.936 109.49 360.862 110.1C360.819 110.405 360.584 110.669 360.354 110.786C360.126 110.911 359.914 110.96 359.728 111.011C358.236 111.406 357.303 111.609 357.279 111.526Z" fill="#263238"/>
<path d="M361.997 128.904C361.997 128.904 354.847 130.892 346.761 128.082C346.761 128.082 351.996 134.922 362.567 131.652L361.997 128.904Z" fill="#6F2E2B"/>
<path d="M350.03 99.9995C349.931 100.428 348.402 100.417 346.659 100.846C344.907 101.24 343.543 101.932 343.264 101.593C343.138 101.43 343.34 101.014 343.868 100.547C344.392 100.081 345.258 99.5925 346.306 99.3445C347.354 99.0995 348.347 99.1495 349.023 99.3325C349.704 99.5155 350.071 99.7975 350.03 99.9995Z" fill="#263238"/>
<path d="M363.563 93.8653C363.324 94.2673 362.039 94.1713 360.579 94.4613C359.11 94.7073 357.936 95.2523 357.577 94.9593C357.417 94.8133 357.54 94.4353 358.012 94.0023C358.476 93.5723 359.31 93.1253 360.317 92.9413C361.324 92.7583 362.256 92.8823 362.835 93.1223C363.422 93.3593 363.664 93.6723 363.563 93.8653Z" fill="#263238"/>
<path d="M336.708 84.0779C337.147 86.2369 338.586 88.1709 340.528 89.2129C342.47 90.2549 344.877 90.3829 346.919 89.5549C348.503 88.9119 350.135 87.7059 351.743 88.2869C353.434 88.8989 353.964 91.1459 355.534 92.0239C357.776 93.2789 360.477 91.1049 363.037 91.3199C365.014 91.4859 366.547 93.0249 368.096 94.2659C369.644 95.5069 371.794 96.5469 373.542 95.6069C373.076 93.9569 372.603 92.2899 371.772 90.7899C370.941 89.2899 369.706 87.9509 368.109 87.3259C367.234 86.9839 366.275 86.8629 365.439 86.4339C363.634 85.5069 362.825 83.4079 361.508 81.8629C359.811 79.8719 357.106 78.7879 354.504 79.0559C352.339 79.2789 350.286 80.3689 348.111 80.2759C346.503 80.2079 344.963 79.4929 343.354 79.5199C340.221 79.5719 337.867 82.3169 336.129 84.9239" fill="#263238"/>
<path d="M347.246 86.3667C345.815 86.2607 342.868 85.9587 341.9 84.9377C339.798 82.7187 336.662 81.5557 333.858 82.2997C331.055 83.0427 328.797 85.8467 328.838 88.9617C325.412 89.6997 322.512 92.5487 321.538 96.1327C320.564 99.7167 321.557 103.892 324.036 106.638C324.685 107.357 325.677 109.015 325.677 109.015C325.677 109.015 324.391 110.62 323.897 111.712C321.612 116.771 327.815 118.709 327.815 118.709C327.832 122.11 330.966 122.094 332.978 122.084C334.912 122.074 336.102 127.436 337.667 127.228L336.077 110.666C336.27 110.743 336.507 110.793 336.81 110.798C340.601 110.866 339.612 103.694 338.384 101.839C339.453 100.404 340.533 98.9497 341.225 97.2637C341.918 95.5787 341.962 91.3667 341.373 89.5967C342.695 89.4027 347.875 86.4127 347.246 86.3667Z" fill="#263238"/>
<path d="M336.645 111.542C336.055 109.273 333.239 108.26 331.49 109.822C330.53 110.679 329.958 112.121 330.563 114.535C332.178 120.972 338.307 118.024 338.272 117.836C338.25 117.72 337.336 114.2 336.645 111.542Z" fill="#7F3E3B"/>
<path d="M335.694 115.89C335.66 115.877 335.601 115.997 335.434 116.131C335.27 116.262 334.967 116.4 334.6 116.359C333.857 116.28 333.014 115.344 332.692 114.191C332.529 113.609 332.511 113.021 332.603 112.507C332.681 111.987 332.903 111.581 333.231 111.435C333.552 111.271 333.846 111.415 333.97 111.576C334.102 111.734 334.093 111.873 334.13 111.876C334.152 111.888 334.241 111.733 334.123 111.481C334.064 111.36 333.951 111.227 333.769 111.141C333.583 111.054 333.34 111.047 333.108 111.133C332.62 111.292 332.288 111.86 332.187 112.425C332.059 112.999 332.065 113.663 332.248 114.317C332.615 115.604 333.583 116.651 334.581 116.687C335.063 116.692 335.407 116.46 335.564 116.259C335.721 116.049 335.719 115.896 335.694 115.89Z" fill="#6F2E2B"/>
<path d="M371.174 102.55C371.134 102.501 371.756 102.101 372.578 101.096C373.382 100.1 374.361 98.404 374.588 96.095C374.698 94.954 374.642 93.669 374.229 92.387C373.817 91.113 373.08 89.831 371.943 88.835C369.724 86.817 366.048 85.883 362.751 87.045C362.45 87.142 362.171 87.292 361.886 87.41C361.613 87.553 361.355 87.714 361.1 87.857L360.704 88.08L360.698 87.639C360.688 86.864 360.397 86.113 359.889 85.538C359.386 84.959 358.735 84.519 358.042 84.218C356.637 83.6 355.128 83.589 353.749 83.904C350.989 84.531 348.647 85.793 346.436 86.047C344.246 86.327 342.427 85.783 341.448 85.045C340.942 84.692 340.658 84.298 340.47 84.045C340.309 83.768 340.233 83.621 340.248 83.613C340.3 83.571 340.569 84.227 341.558 84.886C342.527 85.543 344.279 86.011 346.388 85.696C347.435 85.541 348.554 85.167 349.746 84.727C350.939 84.291 352.215 83.768 353.65 83.448C354.367 83.295 355.12 83.182 355.91 83.222C356.694 83.263 357.485 83.441 358.24 83.758C358.991 84.08 359.708 84.554 360.278 85.206C360.853 85.851 361.208 86.736 361.216 87.643L360.814 87.425C361.086 87.27 361.361 87.099 361.652 86.946C361.955 86.819 362.253 86.66 362.573 86.557C366.081 85.326 369.926 86.328 372.263 88.48C373.457 89.544 374.228 90.918 374.641 92.262C375.056 93.616 375.091 94.956 374.953 96.138C374.669 98.528 373.604 100.249 372.732 101.229C372.291 101.723 371.904 102.068 371.617 102.264C371.336 102.465 371.185 102.565 371.174 102.55Z" fill="#455A64"/>
<path d="M369.865 79.9434C369.828 80.0164 369.181 79.4374 367.793 79.2324C367.109 79.1434 366.244 79.1474 365.331 79.4554C364.42 79.7384 363.459 80.3424 362.797 81.2984L362.552 81.6514L362.402 81.2514C361.593 79.0944 359.23 77.0434 356.302 76.7214C354.103 76.4684 352.102 77.4594 350.438 78.4164C348.762 79.3974 347.232 80.3574 345.79 80.8214C344.365 81.3224 343.102 81.3774 342.272 81.2354C341.855 81.1624 341.542 81.0644 341.338 80.9784C341.135 80.8904 341.033 80.8364 341.039 80.8194C341.055 80.7724 341.485 80.9524 342.296 81.0334C343.105 81.1094 344.3 81.0024 345.664 80.4744C347.044 79.9814 348.508 79.0204 350.195 78.0014C351.045 77.5044 351.962 76.9944 352.997 76.6334C354.023 76.2644 355.187 76.0794 356.355 76.2034C359.499 76.5504 361.992 78.7604 362.82 81.0904L362.425 81.0434C363.179 79.9964 364.241 79.3754 365.222 79.1034C366.206 78.8064 367.122 78.8404 367.835 78.9734C368.553 79.1134 369.074 79.3694 369.403 79.5724C369.727 79.7874 369.878 79.9274 369.865 79.9434Z" fill="#455A64"/>
<path d="M356.703 114.48C356.25 114.042 355.572 113.899 354.946 113.97C354.358 114.037 353.634 114.562 353.261 115.2C353.252 115.212 353.244 115.225 353.236 115.238C353.22 115.266 353.195 115.291 353.18 115.32L353.204 115.303C353.068 115.53 352.988 115.796 353.016 116.058C353.08 116.649 353.529 117.145 354.06 117.41C354.905 117.833 356.024 117.71 356.68 117.03C357.336 116.351 357.382 115.136 356.703 114.48Z" fill="#EDDC11"/>
<path d="M357.202 117.591C357.124 117.606 357.027 117.294 356.761 116.875C356.501 116.458 356.035 115.935 355.369 115.63C354.701 115.328 354 115.32 353.515 115.399C353.024 115.474 352.725 115.605 352.685 115.537C352.649 115.485 352.894 115.226 353.426 115.042C353.946 114.857 354.778 114.792 355.584 115.157C356.388 115.525 356.886 116.195 357.088 116.708C357.299 117.229 357.265 117.584 357.202 117.591Z" fill="#263238"/>
<path d="M336.792 118.827C336.841 118.796 337.078 119.328 336.703 120.086C336.516 120.446 336.171 120.844 335.637 121.05C335.103 121.265 334.419 121.184 333.874 120.84C333.328 120.498 332.96 119.915 332.922 119.34C332.876 118.769 333.087 118.286 333.33 117.962C333.852 117.296 334.434 117.281 334.427 117.338C334.461 117.417 333.988 117.565 333.636 118.167C333.468 118.461 333.34 118.864 333.399 119.288C333.448 119.708 333.729 120.13 334.151 120.399C334.576 120.664 335.078 120.734 335.477 120.597C335.884 120.467 336.193 120.177 336.385 119.899C336.776 119.321 336.706 118.83 336.792 118.827Z" fill="#EDDC11"/>
<path d="M333.415 118.443C333.471 118.469 333.385 118.784 332.95 118.997C332.738 119.095 332.443 119.157 332.119 119.078C331.792 119.002 331.48 118.759 331.301 118.428C331.122 118.097 331.088 117.703 331.204 117.387C331.315 117.072 331.528 116.86 331.727 116.736C332.143 116.488 332.454 116.588 332.445 116.649C332.451 116.727 332.2 116.778 331.951 117.028C331.696 117.269 331.508 117.734 331.76 118.179C331.995 118.633 332.488 118.73 332.828 118.649C333.173 118.577 333.353 118.396 333.415 118.443Z" fill="#EDDC11"/>
<path d="M344.413 207.254C344.413 207.254 369.172 208.69 383.807 208.824C395.143 208.928 400.196 205.917 402.462 198.634C404.365 192.519 400.276 180.793 400.276 180.793C392.611 180.831 387.881 181.888 382.948 184.2L384.263 189.562L344.343 193.004L344.413 207.254Z" fill="#7F3E3B"/>
<path d="M392.584 195.283C392.447 195.376 391.283 193.207 388.847 191.574C386.436 189.902 383.991 189.612 384.028 189.45C384.034 189.389 384.649 189.374 385.616 189.589C386.58 189.8 387.884 190.29 389.14 191.144C390.393 192.002 391.326 193.036 391.875 193.856C392.428 194.676 392.638 195.255 392.584 195.283Z" fill="#6F2E2B"/>
<path d="M335.347 184.164C335.347 184.164 327.688 186.001 322.065 189.761L328.045 206.024C330.043 211.361 336.163 213.984 341.01 211.215C348.54 206.913 351.196 194.351 351.196 194.351L359.472 158.473L345.762 149.883L335.347 184.164Z" fill="#7F3E3B"/>
<path d="M345.762 149.883L346.315 138.083L343.254 126.132C343.084 125.47 343.001 124.644 343.537 124.241C344.097 123.82 344.936 123.841 345.386 124.3C346.224 125.157 350.222 135.653 350.222 135.653C350.222 135.653 356.289 132.007 357.372 131.829C358.455 131.651 359.805 134.916 359.89 135.174C359.975 135.432 359.901 137.367 359.901 137.367C359.901 137.367 363.653 137.479 363.989 137.994C364.325 138.509 364.422 141.177 364.422 141.177C364.422 141.177 366.008 141.686 366.264 142.889C366.52 144.093 367.03 146.071 366.282 146.505C365.534 146.939 363.955 147.808 363.955 147.808C363.955 147.808 363.319 153.93 363.155 154.487C362.991 155.044 359.474 158.472 359.474 158.472L345.762 149.883Z" fill="#7F3E3B"/>
<path d="M333.011 211.462C333.027 211.429 333.385 211.675 334.16 211.927C334.927 212.185 336.142 212.418 337.694 212.207C339.229 212 341.121 211.326 342.812 209.847C344.48 208.338 346.168 206.338 347.571 203.823C348.269 202.565 348.897 201.184 349.424 199.692C349.964 198.202 350.315 196.586 350.707 194.898C351.492 191.528 352.337 187.9 353.236 184.045C355.041 176.331 357.059 167.707 359.232 158.418L359.248 158.349L359.3 158.298C359.988 157.623 360.68 156.928 361.365 156.213C361.706 155.855 362.047 155.492 362.374 155.119C362.533 154.933 362.701 154.741 362.828 154.555C362.945 154.434 362.949 154.193 362.996 153.938C363.267 151.936 363.478 149.867 363.7 147.784L363.714 147.652L363.831 147.586C364.456 147.235 365.092 146.879 365.737 146.518C365.882 146.432 366.096 146.328 366.186 146.256C366.265 146.192 366.336 146.079 366.366 145.921C366.44 145.616 366.416 145.244 366.378 144.885C366.287 144.18 366.122 143.362 365.934 142.711C365.685 142.104 364.999 141.667 364.342 141.427L364.169 141.364L364.162 141.19C364.137 140.611 364.098 140.014 364.033 139.422C363.999 139.126 363.961 138.827 363.9 138.544C363.868 138.41 363.83 138.256 363.785 138.174C363.754 138.108 363.768 138.158 363.723 138.115C363.67 138.092 363.627 138.063 363.555 138.045C362.444 137.739 361.134 137.694 359.893 137.632L359.633 137.619L359.641 137.362C359.66 136.745 359.686 136.056 359.658 135.408C359.674 135.237 359.519 134.978 359.425 134.738C359.318 134.497 359.202 134.259 359.082 134.025C358.84 133.559 358.575 133.103 358.264 132.705C358.109 132.51 357.938 132.32 357.756 132.206C357.552 132.084 357.466 132.056 357.224 132.145C356.76 132.308 356.28 132.559 355.814 132.791C353.947 133.762 352.134 134.823 350.356 135.879L350.095 136.034L349.983 135.754C349.037 133.386 348.103 131.048 347.183 128.743C346.723 127.591 346.266 126.447 345.813 125.312C345.648 124.738 345.247 124.414 344.714 124.283C344.185 124.148 343.661 124.311 343.413 124.76C343.288 124.972 343.234 125.227 343.261 125.472C343.29 125.695 343.4 126.032 343.465 126.306C343.617 126.883 343.767 127.457 343.918 128.028C344.218 129.171 344.516 130.304 344.811 131.426C345.4 133.67 345.978 135.872 346.544 138.028L346.553 138.063L346.551 138.099C346.352 142.205 346.161 146.146 345.979 149.898L345.978 149.926L345.97 149.951C342.191 162.248 339.057 172.447 336.86 179.596C335.756 183.138 334.888 185.924 334.289 187.847C333.991 188.778 333.761 189.5 333.597 190.011C333.437 190.499 333.339 190.746 333.339 190.746C333.339 190.746 333.395 190.486 333.534 189.991C333.683 189.476 333.893 188.748 334.164 187.808C334.737 185.876 335.567 183.079 336.622 179.522C338.776 172.36 341.85 162.143 345.556 149.823L345.547 149.876C345.717 146.123 345.896 142.183 346.082 138.075L346.09 138.146C345.519 135.992 344.936 133.791 344.341 131.548C344.044 130.426 343.744 129.294 343.441 128.151C343.29 127.58 343.138 127.006 342.985 126.429C342.913 126.123 342.822 125.892 342.766 125.522C342.728 125.172 342.803 124.81 342.982 124.504C343.163 124.197 343.441 123.948 343.792 123.823C344.142 123.707 344.493 123.718 344.826 123.79C345.157 123.869 345.48 124.017 345.742 124.256C346.009 124.476 346.191 124.855 346.281 125.118C346.736 126.253 347.194 127.396 347.655 128.548C348.578 130.852 349.514 133.19 350.462 135.558L350.089 135.433C351.876 134.37 353.685 133.31 355.576 132.325C356.058 132.086 356.52 131.839 357.06 131.648C357.207 131.605 357.351 131.552 357.563 131.577C357.745 131.603 357.914 131.676 358.037 131.766C358.305 131.94 358.493 132.159 358.67 132.378C359.016 132.822 359.29 133.298 359.543 133.783C359.668 134.026 359.787 134.272 359.898 134.522C359.99 134.78 360.158 134.992 360.175 135.371C360.206 136.08 360.178 136.746 360.159 137.379L359.907 137.109C361.194 137.179 362.439 137.2 363.725 137.552C363.804 137.572 363.896 137.621 363.983 137.664C364.061 137.702 364.221 137.844 364.241 137.926C364.338 138.118 364.364 138.27 364.406 138.432C364.474 138.749 364.512 139.056 364.547 139.363C364.614 139.976 364.653 140.575 364.678 141.17L364.498 140.933C365.271 141.226 366.037 141.675 366.409 142.513C366.651 143.337 366.778 144.032 366.888 144.828C366.926 145.219 366.963 145.614 366.864 146.043C366.822 146.251 366.712 146.493 366.501 146.661C366.293 146.812 366.163 146.86 365.991 146.964C365.343 147.326 364.704 147.684 364.075 148.035L364.206 147.838C363.981 149.928 363.769 151.986 363.492 154.013L363.428 154.401C363.418 154.52 363.324 154.741 363.243 154.837C363.084 155.069 362.918 155.255 362.75 155.451C362.413 155.834 362.069 156.2 361.723 156.56C361.031 157.279 360.336 157.974 359.642 158.653L359.71 158.533C357.511 167.815 355.468 176.434 353.642 184.143C352.726 187.994 351.863 191.618 351.063 194.984C350.664 196.661 350.297 198.301 349.741 199.806C349.198 201.314 348.553 202.708 347.837 203.975C346.398 206.51 344.674 208.517 342.969 210.027C341.217 211.526 339.282 212.185 337.715 212.371C336.131 212.56 334.899 212.295 334.132 212.009C333.745 211.866 333.462 211.733 333.282 211.624C333.099 211.522 333.007 211.468 333.011 211.462Z" fill="#6F2E2B"/>
<path d="M359.898 137.348C359.894 137.421 359.559 137.459 359.031 137.484C358.505 137.514 357.782 137.529 357.039 137.72C356.3 137.911 355.701 138.282 355.342 138.626C354.976 138.967 354.816 139.257 354.743 139.226C354.684 139.207 354.724 138.842 355.067 138.381C355.4 137.92 356.068 137.431 356.908 137.215C357.744 137.002 358.513 137.052 359.045 137.115C359.581 137.186 359.902 137.278 359.898 137.348Z" fill="#6F2E2B"/>
<path d="M356.964 137.458C356.829 137.408 356.821 137.099 356.944 136.768C357.068 136.437 357.277 136.21 357.412 136.261C357.547 136.311 357.555 136.62 357.432 136.951C357.309 137.281 357.099 137.508 356.964 137.458Z" fill="#6F2E2B"/>
<path d="M364.584 141.089C364.582 141.24 363.244 141.396 361.616 141.499C360.81 141.571 360.203 141.86 359.964 142.294C359.7 142.703 359.788 143.042 359.712 143.064C359.664 143.11 359.393 142.727 359.635 142.129C359.747 141.847 359.992 141.534 360.35 141.335C360.702 141.132 361.129 141.033 361.553 140.983C363.234 140.874 364.587 140.953 364.584 141.089Z" fill="#6F2E2B"/>
<path d="M363.917 144.687C364.061 144.694 364.144 145.433 364.103 146.338C364.062 147.244 363.913 147.972 363.769 147.966C363.625 147.959 363.542 147.22 363.583 146.315C363.624 145.409 363.773 144.68 363.917 144.687Z" fill="#6F2E2B"/>
<path d="M368.074 171.621L368.963 168.555C369.141 167.94 369.917 167.745 370.365 168.202L371.525 169.386L372.25 166.503C372.441 165.743 373.478 165.638 373.817 166.345L375.454 169.759L368.074 171.621Z" fill="white"/>
<path d="M375.47 171.07C375.505 171.21 373.923 171.721 371.938 172.213C369.953 172.705 368.316 172.99 368.281 172.85C368.246 172.71 369.827 172.199 371.813 171.707C373.798 171.216 375.435 170.931 375.47 171.07Z" fill="white"/>
<path d="M316.002 153.977C316.026 153.997 315.63 154.362 315.113 155.165C314.6 155.967 314.033 157.253 313.757 158.941C313.463 160.625 313.45 162.672 313.577 164.932C313.687 167.195 313.87 169.68 314.147 172.28C314.696 177.483 315.54 182.15 316.258 185.501C316.614 187.178 316.934 188.528 317.155 189.461C317.254 189.875 317.339 190.229 317.413 190.535C317.47 190.781 317.489 190.913 317.489 190.913C317.489 190.913 317.442 190.788 317.372 190.546C317.288 190.243 317.191 189.892 317.076 189.481C316.83 188.554 316.488 187.208 316.113 185.533C315.357 182.186 314.489 177.515 313.939 172.303C313.662 169.699 313.484 167.209 313.385 164.942C313.268 162.678 313.296 160.614 313.612 158.916C313.909 157.214 314.505 155.918 315.045 155.121C315.589 154.322 316.002 153.977 316.002 153.977Z" fill="white"/>
<path d="M337.046 140.382C337.049 140.389 336.971 140.431 336.821 140.505C336.617 140.602 336.4 140.706 336.161 140.82C335.588 141.092 334.763 141.495 333.77 142.043C331.772 143.117 329.109 144.777 326.256 146.739C323.401 148.702 320.87 150.557 319.022 151.878C318.172 152.48 317.441 152.997 316.826 153.433C316.607 153.583 316.408 153.718 316.221 153.845C316.081 153.937 316.006 153.983 316.002 153.977C315.998 153.971 316.065 153.914 316.196 153.811C316.375 153.674 316.567 153.528 316.778 153.367C317.382 152.917 318.1 152.381 318.934 151.759C320.76 150.408 323.278 148.533 326.137 146.567C328.995 144.602 331.678 142.957 333.7 141.913C334.704 141.38 335.543 140.996 336.127 140.746C336.373 140.645 336.595 140.553 336.804 140.467C336.96 140.404 337.043 140.375 337.046 140.382Z" fill="white"/>
<path d="M384.737 146.887C384.732 146.892 384.674 146.848 384.57 146.761C384.427 146.637 384.279 146.508 384.12 146.371C383.727 146.038 383.141 145.571 382.369 145.065C380.841 144.028 378.558 142.859 375.94 141.812C373.319 140.765 370.87 140.021 369.086 139.531C368.195 139.284 367.468 139.102 366.965 138.978C366.761 138.926 366.571 138.877 366.387 138.831C366.255 138.795 366.187 138.773 366.188 138.766C366.189 138.759 366.261 138.767 366.395 138.79C366.582 138.825 366.775 138.861 366.982 138.899C367.491 138.999 368.224 139.159 369.123 139.389C370.921 139.843 373.385 140.567 376.017 141.619C378.646 142.67 380.933 143.868 382.451 144.944C383.984 146.001 384.737 146.887 384.737 146.887Z" fill="white"/>
<path d="M337.329 223.219C337.324 223.231 337.184 223.188 336.939 223.085C336.695 222.982 336.348 222.813 335.947 222.554C335.162 222.057 334.093 221.081 333.772 219.609C333.441 218.166 333.752 216.803 334.159 215.95C334.361 215.517 334.573 215.192 334.737 214.983C334.901 214.774 335.006 214.671 335.016 214.678C335.05 214.702 334.655 215.146 334.294 216.008C333.931 216.856 333.656 218.174 333.975 219.562C334.278 220.961 335.278 221.911 336.03 222.432C336.797 222.967 337.346 223.183 337.329 223.219Z" fill="white"/>
<path d="M334.146 212.392C334.201 212.376 334.414 212.938 334.622 213.647C334.829 214.357 334.953 214.945 334.898 214.961C334.843 214.977 334.63 214.415 334.422 213.705C334.214 212.997 334.091 212.408 334.146 212.392Z" fill="white"/>
<path d="M347.666 436.598L378.17 436.445L377.617 330.986L377.333 223.716L336.02 223.203L328.593 237.205C325.597 242.854 323.56 248.993 322.878 255.352C322.359 260.198 325.99 276.002 327.258 280.024L338.629 316.085L347.666 436.598Z" fill="#263238"/>
<path d="M386.283 223.861L419.799 315.232C423.735 327.478 422.42 339.619 415.667 350.931L376.753 426.886L354.873 399.514L387.433 331.47L358.729 284.966L363.559 223.958L377.079 223.741L386.283 223.861Z" fill="#263238"/>
<path d="M374.547 254.471C374.547 254.471 374.572 254.629 374.594 254.939C374.615 255.272 374.644 255.729 374.681 256.316C374.747 257.552 374.842 259.332 374.964 261.613C375.188 266.239 375.509 272.89 375.906 281.099C376.285 289.334 376.736 299.129 377.236 310.003C377.481 315.443 377.737 321.153 378.004 327.072C378.194 330.03 378.107 333.047 378.143 336.107C378.152 339.167 378.162 342.271 378.171 345.413C378.213 370.545 378.251 393.293 378.279 409.786C378.268 418.005 378.258 424.663 378.252 429.293C378.237 431.577 378.226 433.359 378.218 434.596C378.209 435.184 378.201 435.642 378.196 435.975C378.188 436.286 378.171 436.445 378.171 436.445C378.171 436.445 378.153 436.286 378.143 435.975C378.136 435.642 378.126 435.184 378.113 434.596C378.098 433.359 378.077 431.577 378.049 429.293C378.016 424.663 377.969 418.005 377.91 409.788C377.843 393.297 377.751 370.552 377.65 345.423C377.641 342.282 377.633 339.178 377.625 336.118C377.591 333.059 377.681 330.042 377.494 327.084C377.238 321.166 376.992 315.457 376.757 310.017C376.298 299.143 375.885 289.348 375.538 281.113C375.211 272.902 374.946 266.249 374.761 261.622C374.681 259.339 374.619 257.558 374.576 256.321C374.561 255.733 374.549 255.275 374.541 254.942C374.536 254.631 374.547 254.471 374.547 254.471Z" fill="#455A64"/>
<path d="M373.783 225.664C373.819 225.66 373.892 226.014 373.994 226.657C374.098 227.3 374.222 228.234 374.355 229.391C374.622 231.704 374.903 234.911 375.064 238.461C375.223 242.013 375.232 245.232 375.175 247.56C375.146 248.724 375.107 249.665 375.062 250.315C375.018 250.965 374.977 251.324 374.941 251.323C374.865 251.321 374.844 249.882 374.807 247.558C374.771 245.234 374.703 242.025 374.544 238.484C374.383 234.944 374.162 231.742 373.989 229.425C373.817 227.108 373.708 225.672 373.783 225.664Z" fill="#455A64"/>
<path d="M367.061 227.723C367.114 227.789 366.541 228.048 366.384 228.863C366.311 229.252 366.392 229.749 366.772 230.082C367.133 230.418 367.764 230.586 368.272 230.356C368.778 230.122 369.064 229.534 369.045 229.041C369.041 228.536 368.718 228.15 368.376 227.951C367.657 227.538 367.086 227.802 367.071 227.719C367.057 227.692 367.167 227.586 367.425 227.511C367.679 227.437 368.094 227.418 368.546 227.624C368.986 227.811 369.487 228.314 369.524 229.015C369.573 229.682 369.235 230.472 368.489 230.828C367.732 231.16 366.912 230.9 366.44 230.427C365.934 229.94 365.879 229.233 366.026 228.777C366.165 228.301 366.451 227.998 366.673 227.854C366.899 227.709 367.05 227.695 367.061 227.723Z" fill="#455A64"/>
<path d="M351.058 225.911C351.086 225.904 351.21 226.237 351.332 226.868C351.457 227.497 351.534 228.436 351.421 229.586C351.311 230.735 350.964 232.092 350.267 233.46C349.576 234.826 348.5 236.187 347.059 237.238C345.602 238.268 343.968 238.852 342.452 239.07C340.932 239.293 339.535 239.188 338.412 238.925C337.286 238.665 336.422 238.292 335.865 237.972C335.307 237.655 335.03 237.431 335.046 237.406C335.095 237.304 336.276 238.15 338.485 238.564C340.64 238.994 343.964 238.799 346.755 236.815C349.525 234.806 350.774 231.719 351.056 229.54C351.37 227.314 350.946 225.925 351.058 225.911Z" fill="#455A64"/>
<path d="M390.296 234.665C390.297 234.715 389.539 234.772 388.375 234.438C387.216 234.113 385.691 233.295 384.439 231.921C383.192 230.541 382.525 228.944 382.313 227.759C382.092 226.568 382.222 225.819 382.272 225.825C382.365 225.824 382.37 226.56 382.671 227.675C382.965 228.789 383.645 230.264 384.824 231.571C386.011 232.87 387.413 233.69 388.493 234.089C389.573 234.497 390.305 234.573 390.296 234.665Z" fill="#455A64"/>
<path d="M402.209 333.172C402.245 333.218 401.632 333.83 400.441 334.578C399.843 334.943 399.088 335.34 398.166 335.572C397.253 335.809 396.148 335.841 395.096 335.491C392.966 334.788 391.637 333.188 390.824 332.091C390.01 330.957 389.6 330.204 389.652 330.167C389.716 330.12 390.239 330.806 391.114 331.864C391.988 332.891 393.306 334.358 395.255 334.995C397.212 335.649 399.087 334.88 400.26 334.258C401.462 333.612 402.159 333.103 402.209 333.172Z" fill="#455A64"/>
<path d="M394.574 339.008C394.457 339.091 393.043 337.305 391.417 335.019C389.791 332.732 388.567 330.811 388.685 330.727C388.802 330.644 390.215 332.43 391.842 334.717C393.468 337.003 394.691 338.925 394.574 339.008Z" fill="#455A64"/>
<path d="M343.325 258.018C343.191 258.071 342.835 257.496 342.53 256.732C342.224 255.968 342.085 255.306 342.219 255.252C342.352 255.199 342.708 255.775 343.014 256.538C343.319 257.302 343.459 257.965 343.325 258.018Z" fill="#FAFAFA"/>
<path d="M362.688 260.784C362.544 260.784 362.428 260.289 362.428 259.678C362.428 259.067 362.545 258.571 362.688 258.571C362.832 258.571 362.948 259.066 362.948 259.678C362.948 260.289 362.832 260.784 362.688 260.784Z" fill="#FAFAFA"/>
<path d="M354.731 271.297C354.587 271.307 354.429 270.695 354.377 269.932C354.325 269.168 354.399 268.541 354.543 268.531C354.687 268.521 354.845 269.133 354.897 269.896C354.949 270.66 354.875 271.288 354.731 271.297Z" fill="#FAFAFA"/>
<path d="M340.19 279.04C340.071 279.128 339.658 278.759 339.123 278.375C338.592 277.984 338.115 277.705 338.161 277.565C338.2 277.431 338.823 277.511 339.429 277.954C340.038 278.394 340.306 278.961 340.19 279.04Z" fill="#FAFAFA"/>
<path d="M365.823 288.814C365.703 288.734 365.854 288.298 366.159 287.84C366.465 287.382 366.809 287.075 366.929 287.155C367.049 287.235 366.898 287.671 366.592 288.129C366.287 288.587 365.942 288.894 365.823 288.814Z" fill="#FAFAFA"/>
<path d="M349.964 291.581C349.82 291.581 349.704 290.755 349.704 289.737C349.704 288.718 349.821 287.893 349.964 287.893C350.108 287.893 350.224 288.719 350.224 289.737C350.224 290.755 350.108 291.581 349.964 291.581Z" fill="#FAFAFA"/>
<path d="M344.823 302.798C344.738 302.914 344.216 302.679 343.655 302.272C343.094 301.865 342.709 301.441 342.793 301.324C342.878 301.208 343.4 301.443 343.961 301.85C344.522 302.257 344.908 302.682 344.823 302.798Z" fill="#FAFAFA"/>
<path d="M360.844 306.701C360.902 306.832 360.578 307.104 360.12 307.308C359.662 307.512 359.243 307.57 359.184 307.439C359.126 307.308 359.45 307.036 359.908 306.832C360.366 306.629 360.785 306.57 360.844 306.701Z" fill="#FAFAFA"/>
<path d="M349.964 324.957C349.835 325.021 349.318 324.248 348.809 323.23C348.3 322.211 347.991 321.334 348.12 321.269C348.249 321.205 348.766 321.978 349.275 322.997C349.784 324.015 350.092 324.893 349.964 324.957Z" fill="#FAFAFA"/>
<path d="M367.667 323.298C367.54 323.23 367.768 322.556 368.175 321.792C368.582 321.028 369.015 320.464 369.142 320.532C369.269 320.6 369.042 321.274 368.634 322.038C368.227 322.801 367.794 323.366 367.667 323.298Z" fill="#FAFAFA"/>
<path d="M359.922 338.788C359.774 338.766 359.786 337.977 359.633 337.038C359.49 336.098 359.236 335.351 359.369 335.284C359.489 335.216 359.987 335.924 360.147 336.957C360.313 337.988 360.057 338.816 359.922 338.788Z" fill="#FAFAFA"/>
<path d="M351.624 347.639C351.517 347.736 351.018 347.36 350.509 346.8C350 346.24 349.673 345.707 349.78 345.611C349.886 345.514 350.385 345.89 350.895 346.45C351.403 347.01 351.73 347.543 351.624 347.639Z" fill="#FAFAFA"/>
<path d="M371.764 350.999C371.661 350.898 372.029 350.359 372.585 349.795C373.141 349.231 373.675 348.855 373.777 348.956C373.879 349.057 373.512 349.596 372.956 350.161C372.4 350.724 371.866 351.099 371.764 350.999Z" fill="#FAFAFA"/>
<path d="M360.18 364.247C360.038 364.225 360.036 363.463 360.175 362.545C360.314 361.626 360.543 360.899 360.685 360.921C360.827 360.943 360.829 361.705 360.69 362.624C360.55 363.542 360.322 364.269 360.18 364.247Z" fill="#FAFAFA"/>
<path d="M352.385 370.676C352.261 370.749 351.824 370.233 351.409 369.525C350.994 368.816 350.758 368.183 350.883 368.11C351.007 368.037 351.444 368.553 351.859 369.261C352.273 369.97 352.509 370.603 352.385 370.676Z" fill="#FAFAFA"/>
<path d="M371.163 378.793C371.247 378.91 370.737 379.418 370.025 379.928C369.313 380.438 368.667 380.756 368.583 380.64C368.499 380.523 369.009 380.015 369.721 379.505C370.434 378.995 371.079 378.676 371.163 378.793Z" fill="#FAFAFA"/>
<path d="M355.523 389.324C355.383 389.273 355.561 388.467 355.645 387.473C355.737 386.479 355.702 385.655 355.849 385.629C355.984 385.6 356.261 386.445 356.164 387.519C356.072 388.593 355.652 389.377 355.523 389.324Z" fill="#FAFAFA"/>
<path d="M361.766 404.437C361.654 404.527 361.232 404.187 360.825 403.678C360.418 403.169 360.178 402.683 360.291 402.593C360.403 402.503 360.825 402.843 361.232 403.352C361.639 403.862 361.878 404.348 361.766 404.437Z" fill="#FAFAFA"/>
<path d="M354.943 414.58C354.824 414.662 354.274 414.067 353.714 413.252C353.154 412.437 352.796 411.71 352.914 411.628C353.032 411.547 353.583 412.141 354.143 412.956C354.703 413.771 355.061 414.498 354.943 414.58Z" fill="#FAFAFA"/>
<path d="M373.752 401.855C373.617 401.804 373.632 401.433 373.785 401.026C373.938 400.618 374.171 400.329 374.306 400.38C374.441 400.43 374.426 400.802 374.273 401.209C374.12 401.616 373.887 401.905 373.752 401.855Z" fill="#FAFAFA"/>
<path d="M365.454 426.012C365.322 425.943 365.573 425.231 365.767 424.34C365.969 423.451 366.043 422.699 366.191 422.693C366.329 422.681 366.493 423.486 366.275 424.454C366.063 425.423 365.574 426.081 365.454 426.012Z" fill="#FAFAFA"/>
<path d="M370.847 271.459C370.717 271.52 370.4 271.118 370.139 270.56C369.878 270.003 369.772 269.501 369.903 269.441C370.033 269.38 370.35 269.782 370.611 270.34C370.871 270.897 370.977 271.398 370.847 271.459Z" fill="#FAFAFA"/>
<path d="M356.971 240.315C357.05 240.442 356.346 241.004 355.603 241.804C354.853 242.598 354.337 243.336 354.205 243.266C354.081 243.206 354.419 242.301 355.223 241.448C356.022 240.591 356.904 240.195 356.971 240.315Z" fill="#FAFAFA"/>
<path d="M369.326 239.946C369.181 239.975 368.946 239.381 368.599 238.696C368.259 238.007 367.925 237.462 368.035 237.364C368.136 237.268 368.688 237.704 369.065 238.463C369.446 239.22 369.464 239.923 369.326 239.946Z" fill="#FAFAFA"/>
<path d="M330.833 250.107C330.699 250.054 330.836 249.391 331.138 248.626C331.441 247.861 331.794 247.284 331.928 247.336C332.062 247.389 331.925 248.052 331.622 248.817C331.32 249.583 330.966 250.16 330.833 250.107Z" fill="#FAFAFA"/>
<path d="M332.076 265.211C331.984 265.322 331.414 264.998 330.803 264.489C330.192 263.98 329.771 263.477 329.863 263.367C329.955 263.256 330.525 263.58 331.136 264.089C331.748 264.598 332.168 265.1 332.076 265.211Z" fill="#FAFAFA"/>
<path d="M357.34 228.33C357.206 228.383 356.933 228.014 356.729 227.505C356.525 226.996 356.469 226.54 356.602 226.486C356.736 226.433 357.009 226.802 357.213 227.311C357.417 227.82 357.473 228.276 357.34 228.33Z" fill="#FAFAFA"/>
<path d="M381.529 235.712C381.388 235.681 381.401 235.079 381.557 234.367C381.713 233.655 381.953 233.102 382.094 233.133C382.234 233.164 382.222 233.766 382.066 234.478C381.909 235.19 381.669 235.743 381.529 235.712Z" fill="#FAFAFA"/>
<path d="M387.214 247.138C387.081 247.083 387.262 246.337 387.619 245.471C387.976 244.605 388.372 243.948 388.505 244.003C388.638 244.058 388.457 244.804 388.1 245.67C387.743 246.536 387.347 247.193 387.214 247.138Z" fill="#FAFAFA"/>
<path d="M383.157 256.358C383.028 256.422 382.553 255.731 382.094 254.815C381.636 253.898 381.368 253.103 381.497 253.039C381.626 252.975 382.101 253.666 382.56 254.582C383.018 255.499 383.285 256.294 383.157 256.358Z" fill="#FAFAFA"/>
<path d="M391.824 265.579C391.69 265.527 391.787 264.949 392.042 264.287C392.297 263.625 392.612 263.13 392.746 263.182C392.88 263.234 392.783 263.812 392.528 264.474C392.273 265.135 391.958 265.63 391.824 265.579Z" fill="#FAFAFA"/>
<path d="M384.079 274.615C383.957 274.691 383.652 274.423 383.397 274.016C383.142 273.608 383.035 273.217 383.157 273.14C383.279 273.064 383.584 273.332 383.839 273.74C384.093 274.146 384.201 274.539 384.079 274.615Z" fill="#FAFAFA"/>
<path d="M385.732 293.246C385.627 293.344 385.004 292.845 384.342 292.132C383.68 291.419 383.229 290.762 383.334 290.664C383.439 290.566 384.061 291.065 384.723 291.778C385.386 292.491 385.837 293.148 385.732 293.246Z" fill="#FAFAFA"/>
<path d="M395.881 282.544C395.768 282.633 395.222 282.127 394.662 281.414C394.102 280.701 393.739 280.051 393.852 279.962C393.965 279.873 394.511 280.379 395.071 281.092C395.632 281.805 395.994 282.455 395.881 282.544Z" fill="#FAFAFA"/>
<path d="M401.449 297.314C401.319 297.252 401.546 296.501 401.956 295.637C402.366 294.772 402.803 294.122 402.933 294.183C403.063 294.245 402.836 294.995 402.426 295.86C402.017 296.724 401.579 297.375 401.449 297.314Z" fill="#FAFAFA"/>
<path d="M389.611 309.468C389.484 309.545 389.02 308.988 388.376 308.4C387.738 307.805 387.147 307.387 387.214 307.254C387.271 307.127 388.028 307.366 388.73 308.017C389.434 308.665 389.733 309.401 389.611 309.468Z" fill="#FAFAFA"/>
<path d="M390.349 322.007C390.349 322.151 389.854 322.267 389.243 322.267C388.632 322.267 388.137 322.15 388.137 322.007C388.137 321.864 388.632 321.747 389.243 321.747C389.853 321.747 390.349 321.863 390.349 322.007Z" fill="#FAFAFA"/>
<path d="M402.52 318.503C402.394 318.425 402.651 317.802 402.842 317.016C403.043 316.232 403.109 315.562 403.257 315.552C403.395 315.536 403.568 316.267 403.347 317.142C403.131 318.019 402.634 318.582 402.52 318.503Z" fill="#FAFAFA"/>
<path d="M414.611 322.709C414.475 322.757 414.106 322.056 413.786 321.145C413.466 320.233 413.317 319.456 413.453 319.408C413.589 319.36 413.958 320.061 414.278 320.973C414.597 321.884 414.747 322.661 414.611 322.709Z" fill="#FAFAFA"/>
<path d="M412.685 339.906C412.558 339.839 412.866 339 413.373 338.032C413.881 337.063 414.395 336.333 414.523 336.399C414.65 336.466 414.342 337.305 413.834 338.273C413.327 339.242 412.812 339.973 412.685 339.906Z" fill="#FAFAFA"/>
<path d="M401.649 350.015C401.516 350.07 401.105 349.377 400.732 348.467C400.358 347.557 400.163 346.776 400.296 346.721C400.429 346.666 400.84 347.359 401.213 348.269C401.587 349.179 401.783 349.961 401.649 350.015Z" fill="#FAFAFA"/>
<path d="M389.427 353.909C389.427 354.053 389.014 354.169 388.505 354.169C387.996 354.169 387.583 354.052 387.583 353.909C387.583 353.766 387.996 353.649 388.505 353.649C389.014 353.649 389.427 353.765 389.427 353.909Z" fill="#FAFAFA"/>
<path d="M396.434 369.953C396.295 369.99 396.017 369.401 395.814 368.637C395.61 367.873 395.558 367.224 395.697 367.187C395.836 367.15 396.114 367.739 396.317 368.503C396.521 369.266 396.573 369.915 396.434 369.953Z" fill="#FAFAFA"/>
<path d="M387.583 364.605C387.46 364.531 387.607 364.058 387.913 363.549C388.219 363.04 388.566 362.687 388.69 362.761C388.813 362.835 388.666 363.308 388.36 363.817C388.054 364.326 387.706 364.679 387.583 364.605Z" fill="#FAFAFA"/>
<path d="M387.398 382.308C387.255 382.325 387.057 381.637 386.955 380.771C386.853 379.905 386.886 379.19 387.029 379.173C387.172 379.156 387.37 379.844 387.472 380.71C387.574 381.576 387.541 382.291 387.398 382.308Z" fill="#FAFAFA"/>
</svg>
