<svg width="500" height="500" viewBox="0 0 500 500" fill="none" xmlns="http://www.w3.org/2000/svg">
<path d="M500 382.398H0V382.648H500V382.398Z" fill="#EBEBEB"/>
<path d="M449.901 398.494H416.779V398.744H449.901V398.494Z" fill="#EBEBEB"/>
<path d="M404.187 398.494H333.381V398.744H404.187V398.494Z" fill="#EBEBEB"/>
<path d="M294.333 389.208H275.141V389.458H294.333V389.208Z" fill="#EBEBEB"/>
<path d="M86.749 390.888H52.459V391.138H86.749V390.888Z" fill="#EBEBEB"/>
<path d="M158 390.888H95.6519V391.138H158V390.888Z" fill="#EBEBEB"/>
<path d="M225.147 395.111H188.333V395.361H225.147V395.111Z" fill="#EBEBEB"/>
<path d="M237.014 337.8H43.915C40.768 337.8 38.207 335.239 38.207 332.092V60.6601C38.207 57.5131 40.768 54.9521 43.915 54.9521H237.014C240.16 54.9521 242.721 57.5131 242.721 60.6601V332.092C242.721 335.239 240.16 337.8 237.014 337.8ZM43.915 55.2031C40.905 55.2031 38.457 57.6511 38.457 60.6611V332.093C38.457 335.103 40.905 337.551 43.915 337.551H237.014C240.023 337.551 242.471 335.103 242.471 332.093V60.6601C242.471 57.6511 240.023 55.2021 237.014 55.2021L43.915 55.2031Z" fill="#EBEBEB"/>
<path d="M453.31 337.8H260.212C257.065 337.8 254.505 335.239 254.505 332.092V60.6601C254.505 57.5131 257.066 54.9521 260.212 54.9521H453.31C456.458 54.9521 459.018 57.5131 459.018 60.6601V332.092C459.019 335.239 456.458 337.8 453.31 337.8ZM260.212 55.2031C257.203 55.2031 254.755 57.6511 254.755 60.6611V332.093C254.755 335.103 257.203 337.551 260.212 337.551H453.31C456.32 337.551 458.768 335.103 458.768 332.093V60.6601C458.768 57.6511 456.32 55.2021 453.31 55.2021L260.212 55.2031Z" fill="#EBEBEB"/>
<path d="M142.041 212.727L362.488 212.727V69.5406L142.041 69.5406L142.041 212.727Z" fill="#E6E6E6"/>
<path d="M137.513 212.727L359.706 212.727V69.5406L137.513 69.5406L137.513 212.727Z" fill="#F0F0F0"/>
<path d="M355.115 204.954V77.3145L142.102 77.3145L142.102 204.954L355.115 204.954Z" fill="#FAFAFA"/>
<path d="M328.971 204.953L302.031 77.3135H266.716L293.656 204.953H328.971Z" fill="white"/>
<path d="M287.941 204.953L261.001 77.3135H245.052L271.992 204.953H287.941Z" fill="white"/>
<path d="M224.656 204.953L197.717 77.3135H170.477L197.417 204.953H224.656Z" fill="white"/>
<path d="M142.685 204.954L142.685 77.3145H142.102L142.102 204.954H142.685Z" fill="#E6E6E6"/>
<path d="M241.986 212.727H255.229L255.229 69.5406H241.986L241.986 212.727Z" fill="#F0F0F0"/>
<path d="M255.813 204.953L255.813 77.3135H255.23L255.23 204.953H255.813Z" fill="#E6E6E6"/>
<path d="M248.378 212.727H248.839L248.839 69.5406H248.378L248.378 212.727Z" fill="#E6E6E6"/>
<path d="M405.928 375.759H446.097V270.96H405.928V375.759Z" fill="#F0F0F0"/>
<path d="M240.285 382.4H438.384V375.76H240.285V382.4Z" fill="#F0F0F0"/>
<path d="M405.928 270.961H232.573V375.76H405.928V270.961Z" fill="#F5F5F5"/>
<path d="M390.135 283.86H248.366V318.23H390.135V283.86Z" fill="#F0F0F0"/>
<path d="M390.135 328.489H248.366V362.859H390.135V328.489Z" fill="#F0F0F0"/>
<path d="M301.337 303.401H337.164C338.22 303.401 339.083 302.537 339.083 301.482V300.607C339.083 299.551 338.219 298.688 337.164 298.688H301.337C300.281 298.688 299.418 299.552 299.418 300.607V301.482C299.418 302.538 300.281 303.401 301.337 303.401Z" fill="#F5F5F5"/>
<path d="M301.337 348.031H337.164C338.22 348.031 339.083 347.167 339.083 346.112V345.237C339.083 344.181 338.219 343.318 337.164 343.318H301.337C300.281 343.318 299.418 344.182 299.418 345.237V346.112C299.418 347.167 300.281 348.031 301.337 348.031Z" fill="#F5F5F5"/>
<path d="M310.374 253.314C310.374 253.314 309.891 270.959 291.38 270.959C272.869 270.959 272.386 253.314 272.386 253.314H310.374Z" fill="#F0F0F0"/>
<path d="M353.676 253.314C353.676 253.314 353.193 270.959 334.682 270.959C316.171 270.959 315.688 253.314 315.688 253.314H353.676Z" fill="#F0F0F0"/>
<path d="M310.374 241.623C310.374 241.623 309.891 259.268 291.38 259.268C272.869 259.268 272.386 241.623 272.386 241.623H310.374Z" fill="#F0F0F0"/>
<path d="M353.676 241.623C353.676 241.623 353.193 259.268 334.682 259.268C316.171 259.268 315.688 241.623 315.688 241.623H353.676Z" fill="#F0F0F0"/>
<path d="M396.978 253.314C396.978 253.314 396.495 270.959 377.984 270.959C359.473 270.959 358.99 253.314 358.99 253.314H396.978Z" fill="#F0F0F0"/>
<path d="M396.978 241.623C396.978 241.623 396.495 259.268 377.984 259.268C359.473 259.268 358.99 241.623 358.99 241.623H396.978Z" fill="#F0F0F0"/>
<path d="M385.323 174.548H410.547V127H385.323V174.548Z" fill="#E6E6E6"/>
<path d="M379.678 174.548H409.302V127H379.678V174.548Z" fill="#F5F5F5"/>
<path d="M404.791 170.324V131.224H384.189V170.324H404.791Z" fill="white"/>
<path d="M423.515 205.272H448.739V157.724H423.515V205.272Z" fill="#E6E6E6"/>
<path d="M417.871 205.272H447.495V157.724H417.871V205.272Z" fill="#F5F5F5"/>
<path d="M442.984 201.049V161.949H422.381V201.049H442.984Z" fill="white"/>
<path d="M72.7492 171.252H108.824L108.824 103.249H72.7492V171.252Z" fill="#E6E6E6"/>
<path d="M64.674 171.252H107.043L107.043 103.249H64.674V171.252Z" fill="#F5F5F5"/>
<path d="M100.591 165.211L100.591 109.29H71.1263L71.1263 165.211H100.591Z" fill="white"/>
<path d="M58.6958 290.627C53.9268 276.627 39.3838 271.415 35.1628 262.575C29.6318 250.994 31.6518 233.621 38.1998 227.351C43.8898 221.903 56.4758 258.741 57.8968 262.856C62.7858 277.011 63.4788 287.517 63.5368 297.694C64.3848 289.043 65.1578 281.1 65.7478 274.971C67.6718 254.981 67.9608 248.552 67.9828 246.574C67.3918 245.608 66.6928 244.482 66.2808 243.877C62.8008 238.771 54.4808 232.693 50.8228 225.271C45.4818 214.434 48.0228 201.464 53.1868 196.634C58.5858 191.584 65.7518 203.519 68.9308 215.345C72.1098 227.171 68.8838 238.489 69.0338 248.311C69.0798 250.237 68.5188 257.554 67.6168 267.702C70.2348 256.783 73.8048 249.467 79.6518 242.65C86.8438 234.266 93.3908 224.055 98.3788 225.375C103.366 226.695 99.0608 240.204 93.9138 249.689C89.3308 258.135 70.5128 266.56 67.1068 273.351C65.8478 287.107 64.1378 304.534 62.4838 320.761C64.8478 312.38 63.9598 311.676 71.1918 298.845C75.4918 291.216 90.6248 281.809 91.7038 287.05C92.7628 292.194 89.1048 302.198 83.0058 309.136C78.0858 314.733 68.5848 314.727 65.9908 318.199C65.3858 319.01 63.3348 322.116 62.1628 323.901C60.1338 343.71 58.2428 361.197 57.4488 367.159L56.5198 367.22C56.7398 365.68 57.7768 355.603 59.1168 342.268C57.6188 335.172 42.5598 331.03 38.6028 323.651C34.4628 315.928 31.8818 306.917 34.7238 300.882C37.0928 295.851 50.4668 302.693 55.2598 311.03C58.4518 316.582 60.1128 322.509 60.2968 330.471C61.2018 321.387 62.1658 311.627 63.0708 302.415C62.1738 300.118 60.1248 294.822 58.6958 290.627Z" fill="#E6E6E6"/>
<path d="M72.8412 382.4H42.9562C41.3232 382.4 39.9162 380.493 39.5922 377.839L37.4712 360.496H78.3282L76.2072 377.839C75.8802 380.492 74.4742 382.4 72.8412 382.4Z" fill="#E6E6E6"/>
<path d="M79.182 361.793H36.6161C35.5961 361.793 34.7391 361.231 34.6251 360.487L33.7551 354.813C33.6211 353.941 34.551 353.178 35.746 353.178H80.0531C81.2491 353.178 82.178 353.941 82.044 354.813L81.1741 360.487C81.0591 361.231 80.202 361.793 79.182 361.793Z" fill="#F0F0F0"/>
<path d="M250 427.561C357.082 427.561 443.889 422.492 443.889 416.238C443.889 409.985 357.082 404.915 250 404.915C142.918 404.915 56.1108 409.985 56.1108 416.238C56.1108 422.492 142.918 427.561 250 427.561Z" fill="#F5F5F5"/>
<path d="M345.092 107.264C334.285 113.614 342.999 120.185 341.338 126.553C339.677 132.921 339.851 134.859 342.625 138.551C345.399 142.243 336.944 143.811 343.156 147.134C349.368 150.456 373.733 147.484 369.026 126.128C364.319 104.772 351.061 103.757 345.092 107.264Z" fill="#263238"/>
<path d="M342.667 147.133C342.639 147.133 342.61 147.129 342.58 147.119C340.831 146.544 339.832 145.831 339.525 144.94C339.124 143.777 339.924 142.579 340.771 141.31C341.81 139.754 342.791 138.285 341.697 136.873C341.409 136.502 341.137 136.162 340.883 135.845C338.638 133.044 337.709 131.884 340.004 126.262C340.853 124.181 340.279 122.305 339.671 120.319C338.582 116.758 337.347 112.721 344.927 107.041C345.052 106.951 345.224 106.974 345.315 107.097C345.407 107.219 345.382 107.393 345.26 107.485C337.99 112.932 339.114 116.605 340.201 120.157C340.81 122.149 341.44 124.209 340.517 126.472C338.345 131.792 339.094 132.727 341.316 135.499C341.571 135.818 341.845 136.16 342.135 136.534C343.475 138.261 342.284 140.044 341.233 141.618C340.464 142.769 339.738 143.857 340.05 144.76C340.297 145.476 341.181 146.076 342.755 146.593C342.9 146.641 342.979 146.797 342.931 146.943C342.892 147.059 342.784 147.133 342.667 147.133Z" fill="#263238"/>
<path d="M350.152 171.025C349.09 175.957 347.866 180.888 346.631 185.798C345.373 190.707 344.082 195.607 342.749 200.493L342.249 202.325L341.999 203.241L341.764 204.07C341.674 204.388 341.532 204.738 341.405 205.065C340.868 206.403 339.956 207.78 338.827 208.837C337.694 209.905 336.409 210.629 335.235 211.078C332.854 211.971 330.88 212.034 329.141 211.982C327.399 211.887 325.855 211.608 324.392 211.263C321.481 210.546 318.882 209.543 316.397 208.387C313.898 207.222 311.601 205.961 309.259 204.402C307.601 203.298 307.151 201.06 308.255 199.402C309.106 198.124 310.632 197.563 312.046 197.88L312.246 197.927C316.906 198.982 321.862 200.098 326.113 200.275C327.16 200.323 328.156 200.29 328.957 200.161C329.75 200.066 330.351 199.811 330.317 199.703C330.312 199.656 330.121 199.688 329.884 199.853C329.655 200.014 329.453 200.301 329.357 200.446C329.328 200.471 329.317 200.529 329.296 200.537L329.274 200.565C329.274 200.565 329.265 200.596 329.271 200.559L329.291 200.441L329.453 199.496L329.777 197.604C330.655 192.565 331.626 187.551 332.667 182.554C333.733 177.559 334.841 172.593 336.159 167.638C337.182 163.795 341.126 161.508 344.969 162.532C348.694 163.523 350.957 167.259 350.16 170.988L350.152 171.025Z" fill="#7F3E3B"/>
<path d="M340.587 156.565C334.408 159.59 332.306 175.48 332.306 175.48L350.991 186.189C350.991 186.189 358.446 172.114 355.9 162.909C354.461 157.704 351.264 151.338 340.587 156.565Z" fill="#EDDC11"/>
<path d="M313.425 198.143L308.248 195.156L307.511 204.183C307.511 204.183 311.907 207.147 314.899 203.744L315.316 201.627C315.34 200.127 314.646 198.848 313.425 198.143Z" fill="#7F3E3B"/>
<path d="M301.881 197.311L301.232 200.54C301.059 201.399 301.461 202.149 302.234 202.409L307.512 204.183L308.249 195.156L304.361 195.238C303.218 195.262 302.106 196.193 301.881 197.311Z" fill="#7F3E3B"/>
<path d="M376.104 406.536L366.589 406.75L364.821 385.078L374.335 384.863L376.104 406.536Z" fill="#7F3E3B"/>
<path d="M365.958 405.578H376.492C376.875 405.578 377.186 405.844 377.24 406.218L378.44 414.553C378.565 415.417 377.821 416.236 376.937 416.22C373.264 416.157 371.494 415.941 366.862 415.941C364.012 415.941 355.826 416.237 351.89 416.237C348.041 416.237 347.745 412.345 349.383 411.993C356.731 410.413 361.914 408.233 364.39 406.154C364.837 405.78 365.397 405.578 365.958 405.578Z" fill="#263238"/>
<g opacity="0.2">
<path d="M364.823 385.083L365.733 396.255L375.251 396.04L374.341 384.869L364.823 385.083Z" fill="black"/>
</g>
<path d="M388.375 155.131C387.985 150.875 384.442 147.626 380.168 147.567C368.577 147.408 353.109 151.079 343.823 155.039C340.512 156.451 338.273 159.597 338.034 163.189C337.929 164.763 337.918 166.721 338.07 169.133L338.068 169.13C337.511 171.459 333.24 188.788 341.545 191.88C341.759 191.96 341.948 192.007 342.14 192.058C344.002 199.359 346.623 208.122 350.279 218.647C365.165 216.045 390.574 210.398 397.818 209.132C398.395 198.035 390.915 182.844 388.375 155.131Z" fill="#EDDC11"/>
<path d="M369.602 129.712C369.069 135.454 369.337 145.756 375.296 148.483C375.296 148.483 370.127 158.915 355.561 166.052C346.947 161.068 351.662 152.615 351.662 152.615C359.887 149.673 358.875 145.177 356.654 141.176L369.602 129.712Z" fill="#7F3E3B"/>
<path d="M351.812 152.496C351.992 152.127 351.671 151.702 351.265 151.766C344.049 152.9 338.851 156.178 337.6 164.944C336.884 169.963 335.413 176.73 335.093 183.833C335.004 185.798 336.478 189.063 338.094 189.817C339.01 197.522 340.645 205.051 343.155 210.49C348.258 212.69 353.134 210.296 353.134 210.296C353.134 210.296 344.246 168.042 351.812 152.496Z" fill="#263238"/>
<path d="M373.476 147.272C364.911 150.453 364.411 154.88 365.323 167.067C366.359 180.911 370.779 199.092 373.129 206.783C390.664 203.102 398.385 196.262 398.385 196.262C398.385 196.262 392.445 159.559 390.406 153.378C388.367 147.196 379.936 144.872 373.476 147.272Z" fill="#263238"/>
<path opacity="0.2" d="M364.324 134.389L356.66 141.171C357.191 142.117 357.645 143.091 357.917 144.067C361.214 144.601 365.166 140.996 365.318 138.495C365.393 137.247 364.699 134.909 364.324 134.389Z" fill="black"/>
<path d="M369.674 118.731C370.348 128.013 370.831 131.927 366.818 137.278C360.781 145.327 349.234 144.125 345.8 135.231C342.71 127.226 342.127 113.393 350.644 108.516C359.036 103.712 369 109.45 369.674 118.731Z" fill="#7F3E3B"/>
<path d="M350.28 218.648C350.28 218.648 344.631 274.123 347.15 302.613C349.769 332.247 362.454 393.981 362.454 393.981H377.901C377.901 393.981 378.612 324.621 374.167 293.527C379.814 261.708 384.979 212.6 382.099 213.086L350.28 218.648Z" fill="#263238"/>
<path d="M379 394.435H361.355L360.264 389.69L379.691 389.109L379 394.435Z" fill="#EDDC11"/>
<path opacity="0.2" d="M374.326 234.569C376.834 229.966 379.668 229.747 381.958 232.073C380.698 248.052 378.045 270.174 375.101 288.043C370.619 272.318 365.797 250.233 374.326 234.569Z" fill="black"/>
<path d="M448.44 374.872L439.428 379.227L426.669 361.276L435.681 356.921L448.44 374.872Z" fill="#7F3E3B"/>
<path d="M437.869 378.171L445.273 370.678C445.542 370.405 445.975 370.347 446.313 370.537L453.846 374.772C454.627 375.211 454.761 376.24 454.128 376.859C451.496 379.433 450.079 380.56 446.823 383.856C444.82 385.883 438.885 392.296 435.389 394.105C431.97 395.874 429.47 392.785 430.723 391.74C436.341 387.054 437.159 382.67 437.23 379.639C437.243 379.091 437.475 378.57 437.869 378.171Z" fill="#263238"/>
<g opacity="0.2">
<path d="M426.675 361.281L433.25 370.535L442.266 366.178L435.69 356.924L426.675 361.281Z" fill="black"/>
</g>
<path d="M365.005 216.073C365.005 216.073 372.267 273.237 385.017 299.195C398.279 326.195 429.789 368.421 429.789 368.421L441.665 363.979C441.665 363.979 425.201 315.942 408.207 287.092C406.565 256.092 406.222 222.577 398.056 210.296L365.005 216.073Z" fill="#263238"/>
<path d="M442.851 363.356L430.167 370.196L426.13 366.336L441.435 357.452L442.851 363.356Z" fill="#EDDC11"/>
<path d="M436.71 381.677C436.054 382.341 435.334 382.864 434.648 382.942C434.212 382.992 433.826 382.865 433.498 382.567C433.303 382.388 433.23 382.171 433.289 381.938C433.591 380.737 437.751 379.243 438.223 379.077C438.317 379.044 438.423 379.066 438.489 379.133C438.554 379.2 438.565 379.295 438.514 379.373C438.082 380.036 437.436 380.942 436.71 381.677ZM433.978 381.681C433.857 381.803 433.778 381.919 433.751 382.025C433.727 382.121 433.754 382.198 433.841 382.277C434.062 382.48 434.308 382.562 434.591 382.53C435.401 382.438 436.557 381.395 437.741 379.706C436.342 380.243 434.603 381.049 433.978 381.681Z" fill="#EDDC11"/>
<path d="M438.488 379.406C438.466 379.428 438.439 379.446 438.408 379.459C437.217 379.946 434.04 380.284 433.309 379.512C433.136 379.329 433.01 379.011 433.392 378.536C433.674 378.185 434.069 377.968 434.564 377.895C436.18 377.656 438.358 379.043 438.45 379.102C438.517 379.145 438.553 379.217 438.544 379.29C438.54 379.334 438.52 379.374 438.488 379.406ZM433.867 378.675C433.836 378.706 433.807 378.739 433.779 378.774C433.527 379.088 433.639 379.205 433.675 379.244C434.114 379.707 436.445 379.611 437.8 379.222C437.133 378.851 435.699 378.149 434.638 378.306C434.319 378.353 434.065 378.474 433.867 378.675Z" fill="#EDDC11"/>
<path d="M354.452 123.424C354.553 124.174 354.237 124.835 353.748 124.901C353.258 124.967 352.779 124.413 352.678 123.663C352.577 122.913 352.893 122.252 353.382 122.186C353.872 122.12 354.351 122.674 354.452 123.424Z" fill="#263238"/>
<path d="M345.979 124.565C346.08 125.315 345.765 125.976 345.275 126.042C344.785 126.108 344.306 125.554 344.205 124.804C344.104 124.054 344.42 123.393 344.909 123.327C345.4 123.261 345.879 123.816 345.979 124.565Z" fill="#263238"/>
<path d="M345.132 123.34L343.262 123.062C343.262 123.062 344.375 124.345 345.132 123.34Z" fill="#263238"/>
<path d="M349.644 125.291C349.644 125.291 348.806 128.689 347.616 130.435C348.73 131.225 350.356 130.577 350.356 130.577L349.644 125.291Z" fill="#630F0F"/>
<path d="M354.839 132.961C354.501 133.061 354.137 133.14 353.746 133.193C353.624 133.209 353.512 133.124 353.496 133.003C353.479 132.881 353.575 132.768 353.686 132.753C356.986 132.308 358.203 129.805 358.215 129.78C358.268 129.669 358.399 129.622 358.511 129.675C358.622 129.728 358.669 129.86 358.616 129.971C358.568 130.07 357.543 132.164 354.839 132.961Z" fill="#263238"/>
<path d="M373.285 126.301C372.639 128.457 371.108 130.042 369.532 130.802C367.161 131.945 365.475 129.713 365.715 127.048C365.931 124.649 367.426 121.164 370.007 121.146C372.551 121.129 374.024 123.836 373.285 126.301Z" fill="#7F3E3B"/>
<path d="M343.156 108.739C344.515 112.741 354.134 111.473 355.118 115.568C356.102 119.663 355.784 124.582 360.992 124.722C366.2 124.862 367.889 132.365 367.165 136.056C366.442 139.748 367.96 146.943 377.281 144.577C386.602 142.211 390.243 133.684 384.172 125.627C380.741 121.074 382.214 120.581 382.411 115.598C382.572 111.531 382.46 105.938 376.481 104.339C370.982 102.867 369.362 105.031 363.991 101.14C355.489 94.9813 339.698 98.5613 343.156 108.739Z" fill="#263238"/>
<path d="M357.219 120.664C357.036 120.702 356.841 120.621 356.743 120.449C355.723 118.665 353.091 118.395 353.065 118.392C352.821 118.369 352.642 118.152 352.665 117.908C352.688 117.664 352.903 117.484 353.149 117.508C353.276 117.52 356.268 117.829 357.514 120.008C357.636 120.221 357.562 120.492 357.349 120.614C357.307 120.638 357.263 120.655 357.219 120.664Z" fill="#263238"/>
<path d="M343.267 121.211C343.131 121.278 342.965 121.274 342.828 121.186C342.622 121.053 342.563 120.778 342.696 120.572C344.029 118.509 346.081 118.477 346.167 118.477C346.413 118.476 346.612 118.674 346.613 118.919C346.614 119.163 346.417 119.363 346.172 119.365C346.104 119.366 344.507 119.407 343.442 121.054C343.397 121.124 343.336 121.176 343.267 121.211Z" fill="#263238"/>
<path d="M391.056 153.998C392.514 154.711 393.718 155.34 394.997 156.062C396.262 156.757 397.492 157.502 398.719 158.254C401.162 159.777 403.566 161.374 405.896 163.119C410.552 166.616 415.047 170.508 418.964 175.487L419.348 175.965C419.613 176.309 419.874 176.674 420.063 176.994C420.478 177.665 420.751 178.26 420.984 178.827C421.43 179.948 421.689 180.92 421.869 181.839C422.222 183.664 422.334 185.269 422.396 186.832C422.513 189.935 422.27 192.83 421.994 195.684C421.339 201.387 420.311 206.83 418.766 212.304C418.226 214.218 416.237 215.331 414.323 214.79C412.775 214.353 411.752 212.969 411.702 211.443L411.7 211.338C411.534 206.009 411.463 200.587 411.119 195.401C410.977 192.813 410.704 190.251 410.341 187.928C410.149 186.782 409.903 185.678 409.61 184.857C409.464 184.455 409.322 184.12 409.225 183.992C409.182 183.937 409.151 183.92 409.19 184.022C409.203 184.05 409.251 184.149 409.31 184.223L409.019 183.934C407.458 182.28 405.588 180.716 403.703 179.167C401.772 177.644 399.719 176.184 397.63 174.755C395.517 173.349 393.355 171.972 391.154 170.651C390.059 169.981 388.942 169.342 387.837 168.697L384.598 166.866L384.353 166.727C380.893 164.772 379.674 160.381 381.63 156.921C383.512 153.594 387.664 152.349 391.056 153.998Z" fill="#7F3E3B"/>
<path d="M381.326 147.663C389.483 147.039 400.574 157.722 400.574 157.722L393.092 173.88C393.092 173.88 381.067 171.555 376.439 165.621C371.497 159.284 375.289 148.125 381.326 147.663Z" fill="#EDDC11"/>
<path d="M362.438 407.217C361.505 407.217 360.646 407.073 360.164 406.64C359.858 406.365 359.723 406.001 359.763 405.558C359.787 405.294 359.917 405.089 360.14 404.968C361.288 404.339 365.027 406.247 365.449 406.467C365.533 406.51 365.58 406.602 365.566 406.695C365.553 406.788 365.482 406.863 365.389 406.881C364.592 407.04 363.471 407.217 362.438 407.217ZM360.767 405.277C360.595 405.277 360.454 405.302 360.353 405.358C360.261 405.408 360.216 405.482 360.206 405.599C360.179 405.899 360.262 406.131 360.461 406.31C361.03 406.821 362.573 406.911 364.651 406.566C363.364 405.948 361.655 405.277 360.767 405.277Z" fill="#EDDC11"/>
<path d="M365.346 406.887C365.315 406.887 365.284 406.88 365.255 406.867C364.137 406.362 361.926 404.34 362.099 403.278C362.14 403.026 362.318 402.713 362.933 402.651C363.387 402.605 363.802 402.734 364.163 403.034C365.342 404.016 365.558 406.54 365.567 406.647C365.573 406.725 365.538 406.801 365.474 406.846C365.436 406.873 365.391 406.887 365.346 406.887ZM363.112 403.086C363.068 403.086 363.024 403.088 362.978 403.093C362.573 403.134 362.546 403.296 362.537 403.35C362.433 403.988 363.934 405.578 365.073 406.269C364.963 405.534 364.651 404.02 363.878 403.376C363.645 403.181 363.393 403.086 363.112 403.086Z" fill="#EDDC11"/>
<path d="M353.604 122.198L351.734 121.922C351.734 121.922 352.847 123.203 353.604 122.198Z" fill="#263238"/>
<path d="M397.899 208.055L399.445 211.245C399.622 211.483 399.36 211.802 398.926 211.878L350.389 220.362C350.051 220.421 349.742 220.304 349.683 220.095L348.758 216.796C348.694 216.567 348.953 216.319 349.323 216.255L397.239 207.879C397.518 207.831 397.785 207.902 397.899 208.055Z" fill="white"/>
<path d="M387.959 214.17L388.976 213.992C389.179 213.957 389.315 213.825 389.279 213.7L388.039 209.421C388.003 209.296 387.807 209.222 387.605 209.258L386.588 209.436C386.385 209.471 386.249 209.603 386.286 209.728L387.526 214.007C387.561 214.132 387.756 214.205 387.959 214.17Z" fill="#263238"/>
<path d="M353.312 220.227L354.329 220.049C354.532 220.014 354.668 219.882 354.631 219.757L353.391 215.478C353.355 215.353 353.159 215.279 352.957 215.315L351.94 215.493C351.737 215.528 351.601 215.66 351.638 215.785L352.878 220.064C352.914 220.189 353.109 220.263 353.312 220.227Z" fill="#263238"/>
<path d="M363.717 218.456L371.554 217.086C371.775 217.047 371.923 216.904 371.883 216.768L370.533 212.107C370.493 211.971 370.281 211.891 370.06 211.929L362.224 213.299C362.003 213.338 361.855 213.481 361.895 213.617L363.245 218.278C363.284 218.415 363.497 218.495 363.717 218.456Z" fill="#E0E0E0"/>
<path d="M411.698 209.578L409.875 216.963L418.764 216.83C418.764 216.83 421.411 211.529 418.305 209.174L411.698 209.578Z" fill="#7F3E3B"/>
<path d="M413.713 222.85L415.289 222.778C417.024 222.699 418.426 221.337 418.556 219.606L418.764 216.828L409.875 216.961L410.14 219.746C410.314 221.568 411.885 222.933 413.713 222.85Z" fill="#7F3E3B"/>
<path d="M186.761 196.337L201.125 213.5C203.736 216.62 207.69 218.293 211.748 217.994L275.542 213.297C285.453 212.567 294.079 220.01 294.809 229.921L303.485 347.747C304.215 357.658 296.772 366.284 286.861 367.014L109.987 380.038C100.076 380.768 91.45 373.325 90.72 363.414L79.544 211.632C79.031 204.669 84.26 198.609 91.223 198.096L176.137 191.843C180.196 191.544 184.149 193.217 186.761 196.337Z" fill="#EDDC11"/>
<g opacity="0.3">
<path d="M186.761 196.337L201.125 213.5C203.736 216.62 207.69 218.293 211.748 217.994L275.542 213.297C285.453 212.567 294.079 220.01 294.809 229.921L303.485 347.747C304.215 357.658 296.772 366.284 286.861 367.014L109.987 380.038C100.076 380.768 91.45 373.325 90.72 363.414L79.544 211.632C79.031 204.669 84.26 198.609 91.223 198.096L176.137 191.843C180.196 191.544 184.149 193.217 186.761 196.337Z" fill="black"/>
</g>
<path d="M155.077 207.131L94.5218 211.59C93.1588 211.69 91.9608 210.657 91.8608 209.294L91.8558 209.222C91.7558 207.859 92.7888 206.661 94.1518 206.561L154.707 202.102C156.07 202.002 157.268 203.035 157.368 204.398L157.373 204.47C157.473 205.833 156.44 207.03 155.077 207.131Z" fill="white"/>
<path d="M146.72 217.876L95.264 221.665C93.901 221.765 92.703 220.732 92.603 219.369L92.598 219.297C92.498 217.934 93.531 216.736 94.894 216.636L146.35 212.847C147.713 212.747 148.911 213.78 149.011 215.143L149.016 215.215C149.116 216.579 148.083 217.776 146.72 217.876Z" fill="white"/>
<path d="M292.67 360.312L106.864 373.993C102.205 374.336 98.113 370.805 97.77 366.146L89.335 251.592C88.992 246.933 92.523 242.841 97.182 242.498L282.988 228.817C287.647 228.474 291.739 232.005 292.082 236.664L300.517 351.218C300.86 355.876 297.329 359.969 292.67 360.312Z" fill="#E0E0E0"/>
<path d="M292.67 360.312L109.527 373.797C104.868 374.14 100.776 370.609 100.433 365.95L91.9981 251.397C91.6551 246.738 95.1861 242.646 99.8451 242.303L282.988 228.818C287.647 228.475 291.739 232.006 292.082 236.665L300.517 351.219C300.86 355.876 297.329 359.969 292.67 360.312Z" fill="white"/>
<path d="M115.521 373.356L153.861 370.533L119.152 256.374L115.521 373.356Z" fill="#F5F5F5"/>
<path d="M328.81 328.327L145.087 359.258C140.48 360.034 136.077 356.899 135.301 352.292L116.231 239.022C115.455 234.415 118.59 230.012 123.197 229.236L306.92 198.305C311.527 197.529 315.93 200.664 316.706 205.271L335.776 318.541C336.551 323.148 333.417 327.551 328.81 328.327Z" fill="white"/>
<path opacity="0.3" d="M328.81 328.328L147.72 358.815C143.113 359.591 138.71 356.456 137.934 351.849L118.864 238.579C118.088 233.972 121.223 229.569 125.83 228.793L306.92 198.305C311.527 197.529 315.93 200.664 316.706 205.271L335.776 318.54C336.551 323.148 333.417 327.552 328.81 328.328Z" fill="#EDDC11"/>
<path opacity="0.2" d="M304.616 222.685L135.99 251.074C133.958 251.416 132.016 250.034 131.674 248.002L130.726 242.371C130.384 240.339 131.766 238.397 133.798 238.055L302.424 209.666C304.456 209.324 306.398 210.706 306.74 212.738L307.688 218.369C308.03 220.401 306.647 222.343 304.616 222.685Z" fill="#EDDC11"/>
<path opacity="0.2" d="M306.443 232.82L137.582 261.249C135.615 261.58 134.277 263.46 134.608 265.427L135.443 270.388C135.774 272.355 137.654 273.693 139.621 273.362L308.482 244.933C310.449 244.602 311.787 242.722 311.456 240.755L310.621 235.793C310.29 233.827 308.41 232.489 306.443 232.82Z" fill="#EDDC11"/>
<path d="M329.065 366.507L328.71 365.572C331.023 364.693 333.142 363.414 335.011 361.772L335.671 362.523C333.712 364.245 331.489 365.585 329.065 366.507Z" fill="#EDDC11"/>
<path d="M340.774 355.921L339.881 355.472C341.556 352.139 342.296 348.405 342.022 344.673L340.919 329.71L341.917 329.637L343.02 344.6C343.308 348.512 342.531 352.427 340.774 355.921Z" fill="#EDDC11"/>
<path d="M322.691 364.371L128.167 378.694V378.697L109.987 380.036C120.028 379.297 127.568 370.558 126.828 360.517L120.955 280.756C120.467 274.125 125.447 268.353 132.078 267.865L320.765 253.971C327.396 253.483 333.168 258.463 333.656 265.094L339.529 344.856C340.268 354.894 332.729 363.632 322.691 364.371Z" fill="#EDDC11"/>
</svg>
