<svg width="70" height="65" viewBox="0 0 70 65" fill="none" xmlns="http://www.w3.org/2000/svg">
<path d="M1.5 50.9175C1.5 57.6428 6.95194 63.0947 13.6772 63.0947C20.4026 63.0947 25.8545 57.6428 25.8545 50.9175V42.1914C25.8545 33.3361 27.8436 24.8826 31.8309 16.8141C34.1551 12.1109 33.0638 6.08718 28.4721 3.09438C24.9046 0.769162 20.0241 0.909551 16.9554 4.18133C12.838 8.57116 9.46623 13.7061 6.83453 19.5726C3.29493 27.4629 1.5 35.1153 1.5 42.5166V50.9175ZM36.8379 50.9175C36.8379 57.6428 42.2898 63.0947 49.0151 63.0947C55.7404 63.0947 61.1924 57.6428 61.1924 50.9175V42.1914C61.1924 33.3361 63.1815 24.8826 67.1688 16.8141C69.493 12.1109 68.4016 6.08718 63.81 3.09438C60.2425 0.769162 55.362 0.909551 52.2933 4.18133C48.1759 8.57116 44.8041 13.7061 42.1724 19.5726C38.6328 27.4629 36.8379 35.1153 36.8379 42.5166V50.9175Z" stroke="#EBDA4C" stroke-width="3"/>
</svg>
